<svg version="1.1" viewBox="0.0 0.0 114.40944881889764 109.85039370078741" fill="none" stroke="none" stroke-linecap="square" stroke-miterlimit="10" xmlns:xlink="http://www.w3.org/1999/xlink" xmlns="http://www.w3.org/2000/svg"><clipPath id="p.0"><path d="m0 0l114.40945 0l0 109.850395l-114.40945 0l0 -109.850395z" clip-rule="nonzero"/></clipPath><g clip-path="url(#p.0)"><path fill="#000000" fill-opacity="0.0" d="m0 0l114.40945 0l0 109.850395l-114.40945 0z" fill-rule="evenodd"/><path fill="#000000" fill-opacity="0.0" d="m8.018373 33.446194l0 0c0 -5.9316254 4.8085327 -10.740156 10.740157 -10.740156l5.391077 0l0 0l24.196852 0l45.719162 0c2.848465 0 5.580261 1.1315479 7.5944366 3.1457176c2.0141678 2.0141716 3.1457138 4.7459717 3.1457138 7.5944386l0 26.850395l0 0l0 16.110233l0 0c0 5.9316254 -4.808525 10.740158 -10.74015 10.740158l-45.719162 0l-12.098103 8.055122l-12.098749 -8.055122l-5.391077 0c-5.9316244 0 -10.740157 -4.8085327 -10.740157 -10.740158l0 0l0 -16.110233l0 0z" fill-rule="evenodd"/><path stroke="#666666" stroke-width="2.0" stroke-linejoin="round" stroke-linecap="butt" d="m8.018373 33.446194l0 0c0 -5.9316254 4.8085327 -10.740156 10.740157 -10.740156l5.391077 0l0 0l24.196852 0l45.719162 0c2.848465 0 5.580261 1.1315479 7.5944366 3.1457176c2.0141678 2.0141716 3.1457138 4.7459717 3.1457138 7.5944386l0 26.850395l0 0l0 16.110233l0 0c0 5.9316254 -4.808525 10.740158 -10.74015 10.740158l-45.719162 0l-12.098103 8.055122l-12.098749 -8.055122l-5.391077 0c-5.9316244 0 -10.740157 -4.8085327 -10.740157 -10.740158l0 0l0 -16.110233l0 0z" fill-rule="evenodd"/><path fill="#666666" d="m27.351557 40.520885q0 0.1875 -0.015625 0.3125q-0.015625 0.125 -0.0625 0.171875q-0.03125 0.046875 -0.09375 0.046875q-0.0625 -0.015625 -0.140625 -0.0625l-6.15625 -3.109375q-0.078125 -0.03125 -0.125 -0.171875q-0.046875 -0.15625 -0.046875 -0.4375q0 -0.125 0 -0.234375q0.015625 -0.109375 0.046875 -0.171875q0.03125 -0.078125 0.0625 -0.125q0.03125 -0.0625 0.078125 -0.078125l6.140625 -3.09375q0.171875 -0.078125 0.234375 0.015625q0.078125 0.09375 0.078125 0.453125q0 0.234375 -0.015625 0.375q-0.015625 0.125 -0.046875 0.203125q-0.015625 0.078125 -0.078125 0.125q-0.046875 0.046875 -0.140625 0.09375l-5.03125 2.453125l5.0 2.421875q0.109375 0.0625 0.15625 0.109375q0.0625 0.03125 0.09375 0.125q0.03125 0.078125 0.046875 0.21875q0.015625 0.125 0.015625 0.359375zm9.718752 -7.46875q0 0.140625 -0.015625 0.265625q-0.015625 0.109375 -0.046875 0.1875q-0.03125 0.0625 -0.078125 0.09375q-0.046875 0.03125 -0.09375 0.03125q-0.09375 0 -0.3125 -0.140625q-0.21875 -0.15625 -0.59375 -0.328125q-0.359375 -0.1875 -0.875 -0.328125q-0.515625 -0.15625 -1.21875 -0.15625q-0.828125 0 -1.5 0.3125q-0.6562519 0.296875 -1.1250019 0.84375q-0.453125 0.53125 -0.703125 1.28125q-0.25 0.734375 -0.25 1.609375q0 0.96875 0.265625 1.71875q0.28125 0.75 0.75 1.265625q0.484375 0.515625 1.1406269 0.78125q0.65625 0.265625 1.453125 0.265625q0.46875 0 0.9375 -0.109375q0.484375 -0.125 0.90625 -0.34375l0 -2.953125l-2.34375 0q-0.140625 0 -0.203125 -0.125q-0.0625 -0.140625 -0.0625 -0.421875q0 -0.140625 0.015625 -0.25q0.015625 -0.109375 0.046875 -0.171875q0.03125 -0.0625 0.078125 -0.09375q0.046875 -0.03125 0.125 -0.03125l3.203125 0q0.09375 0 0.171875 0.03125q0.09375 0.03125 0.15625 0.09375q0.078125 0.0625 0.109375 0.171875q0.046875 0.109375 0.046875 0.25l0 3.84375q0 0.203125 -0.078125 0.359375q-0.0625 0.140625 -0.296875 0.265625q-0.21875 0.109375 -0.578125 0.25q-0.359375 0.125 -0.75 0.21875q-0.375 0.09375 -0.765625 0.140625q-0.390625 0.046875 -0.78125 0.046875q-1.171875 0 -2.093752 -0.359375q-0.921875 -0.375 -1.5625 -1.046875q-0.625 -0.671875 -0.96875 -1.609375q-0.328125 -0.9375 -0.328125 -2.09375q0 -1.203125 0.359375 -2.171875q0.359375 -0.984375 1.015625 -1.671875q0.671875 -0.6875 1.59375 -1.0625019q0.9218769 -0.375 2.046877 -0.375q0.578125 0 1.078125 0.109375q0.515625 0.09375 0.90625 0.234375q0.40625 0.1250019 0.671875 0.2968769q0.265625 0.15625 0.359375 0.265625q0.109375 0.09375 0.140625 0.234375q0.046875 0.125 0.046875 0.375zm6.46875 1.96875q0 0.171875 -0.015625 0.296875q0 0.109375 -0.03125 0.171875q-0.015625 0.0625 -0.0625 0.109375q-0.03125 0.03125 -0.09375 0.03125q-0.0625 0 -0.15625 -0.03125q-0.078125 -0.046875 -0.203125 -0.078125q-0.109375 -0.03125 -0.25 -0.0625q-0.140625 -0.03125 -0.296875 -0.03125q-0.203125 0 -0.390625 0.078125q-0.1875 0.078125 -0.390625 0.265625q-0.203125 0.171875 -0.4375 0.46875q-0.21875 0.296875 -0.5 0.71875l0 4.625q0 0.0625 -0.03125 0.109375q-0.03125 0.046875 -0.109375 0.078125q-0.0625 0.03125 -0.1875 0.046875q-0.125 0.015625 -0.3125 0.015625q-0.1875 0 -0.3125 -0.015625q-0.125 -0.015625 -0.203125 -0.046875q-0.078125 -0.03125 -0.109375 -0.078125q-0.015625 -0.046875 -0.015625 -0.109375l0 -7.03125q0 -0.0625 0.015625 -0.09375q0.03125 -0.046875 0.09375 -0.078125q0.078125 -0.046875 0.1875 -0.046875q0.109375 -0.015625 0.28125 -0.015625q0.171875 0 0.28125 0.015625q0.125 0 0.1875 0.046875q0.0625 0.03125 0.078125 0.078125q0.03125 0.03125 0.03125 0.09375l0 1.03125q0.296875 -0.421875 0.546875 -0.6875q0.25 -0.265625 0.46875 -0.421875q0.234375 -0.15625 0.453125 -0.203125q0.234375 -0.0625 0.453125 -0.0625q0.109375 0 0.234375 0.015625q0.125 0 0.265625 0.03125q0.140625 0.03125 0.25 0.078125q0.125 0.03125 0.171875 0.078125q0.046875 0.03125 0.0625 0.078125q0.015625 0.03125 0.015625 0.09375q0.015625 0.046875 0.015625 0.15625q0.015625 0.09375 0.015625 0.28125zm7.2578125 2.75q0 0.296875 -0.15625 0.4375q-0.15625 0.125 -0.34375 0.125l-4.609375 0q0 0.578125 0.109375 1.046875q0.125 0.46875 0.390625 0.8125q0.28125 0.328125 0.71875 0.515625q0.4375 0.171875 1.0625 0.171875q0.5 0 0.890625 -0.078125q0.390625 -0.078125 0.671875 -0.171875q0.296875 -0.109375 0.46875 -0.1875q0.1875 -0.09375 0.28125 -0.09375q0.0625 0 0.09375 0.03125q0.046875 0.03125 0.0625 0.09375q0.03125 0.046875 0.046875 0.140625q0.015625 0.09375 0.015625 0.234375q0 0.109375 -0.015625 0.1875q0 0.0625 -0.015625 0.125q-0.015625 0.0625 -0.046875 0.109375q-0.015625 0.046875 -0.0625 0.09375q-0.046875 0.03125 -0.265625 0.140625q-0.203125 0.09375 -0.546875 0.1875q-0.328125 0.09375 -0.765625 0.171875q-0.4375 0.078125 -0.9375 0.078125q-0.875 0 -1.53125 -0.25q-0.640625 -0.25 -1.09375 -0.71875q-0.4375 -0.484375 -0.671875 -1.203125q-0.21875 -0.71875 -0.21875 -1.671875q0 -0.90625 0.234375 -1.625q0.234375 -0.71875 0.671875 -1.21875q0.4375 -0.515625 1.0625 -0.78125q0.625 -0.265625 1.40625 -0.265625q0.828125 0 1.40625 0.265625q0.578125 0.265625 0.953125 0.71875q0.375 0.4375 0.546875 1.046875q0.1875 0.609375 0.1875 1.296875l0 0.234375zm-1.296875 -0.390625q0.015625 -1.015625 -0.453125 -1.59375q-0.46875 -0.578125 -1.40625 -0.578125q-0.46875 0 -0.828125 0.1875q-0.359375 0.171875 -0.609375 0.46875q-0.234375 0.296875 -0.375 0.703125q-0.125 0.390625 -0.140625 0.8125l3.8125 0zm9.2578125 0.390625q0 0.296875 -0.15625 0.4375q-0.15625 0.125 -0.34375 0.125l-4.609375 0q0 0.578125 0.109375 1.046875q0.125 0.46875 0.390625 0.8125q0.28125 0.328125 0.71875 0.515625q0.4375 0.171875 1.0625 0.171875q0.5 0 0.890625 -0.078125q0.390625 -0.078125 0.671875 -0.171875q0.296875 -0.109375 0.46875 -0.1875q0.1875 -0.09375 0.28125 -0.09375q0.0625 0 0.09375 0.03125q0.046875 0.03125 0.0625 0.09375q0.03125 0.046875 0.046875 0.140625q0.015625 0.09375 0.015625 0.234375q0 0.109375 -0.015625 0.1875q0 0.0625 -0.015625 0.125q-0.015625 0.0625 -0.046875 0.109375q-0.015625 0.046875 -0.0625 0.09375q-0.046875 0.03125 -0.265625 0.140625q-0.203125 0.09375 -0.546875 0.1875q-0.328125 0.09375 -0.765625 0.171875q-0.4375 0.078125 -0.9375 0.078125q-0.875 0 -1.53125 -0.25q-0.640625 -0.25 -1.09375 -0.71875q-0.4375 -0.484375 -0.671875 -1.203125q-0.21875 -0.71875 -0.21875 -1.671875q0 -0.90625 0.234375 -1.625q0.234375 -0.71875 0.671875 -1.21875q0.4375 -0.515625 1.0625 -0.78125q0.625 -0.265625 1.40625 -0.265625q0.828125 0 1.40625 0.265625q0.578125 0.265625 0.953125 0.71875q0.375 0.4375 0.546875 1.046875q0.1875 0.609375 0.1875 1.296875l0 0.234375zm-1.296875 -0.390625q0.015625 -1.015625 -0.453125 -1.59375q-0.46875 -0.578125 -1.40625 -0.578125q-0.46875 0 -0.828125 0.1875q-0.359375 0.171875 -0.609375 0.46875q-0.234375 0.296875 -0.375 0.703125q-0.125 0.390625 -0.140625 0.8125l3.8125 0zm6.828121 3.6875q0 0.234375 -0.03125 0.375q-0.03125 0.125 -0.09375 0.1875q-0.0625 0.0625 -0.18749619 0.125q-0.125 0.046875 -0.296875 0.078125q-0.15625 0.046875 -0.34375 0.0625q-0.171875 0.03125 -0.34375 0.03125q-0.546875 0 -0.9375 -0.140625q-0.390625 -0.15625 -0.640625 -0.453125q-0.25 -0.296875 -0.375 -0.734375q-0.109375 -0.453125 -0.109375 -1.0625l0 -4.109375l-0.984375 0q-0.109375 0 -0.1875 -0.125q-0.0625 -0.125 -0.0625 -0.40625q0 -0.15625 0.015625 -0.25q0.015625 -0.109375 0.046875 -0.171875q0.03125 -0.0625 0.078125 -0.09375q0.0625 -0.03125 0.125 -0.03125l0.96875 0l0 -1.671875q0 -0.046875 0.03125 -0.09375q0.03125 -0.046875 0.09375 -0.078125q0.078125 -0.046875 0.203125 -0.0625q0.125 -0.015625 0.3125 -0.015625q0.203125 0 0.328125 0.015625q0.125 0.015625 0.1875 0.0625q0.078125 0.03125 0.109375 0.078125q0.03125 0.046875 0.03125 0.09375l0 1.671875l1.7968712 0q0.0625 0 0.109375 0.03125q0.046875 0.03125 0.078125 0.09375q0.046875 0.0625 0.0625 0.171875q0.015625 0.09375 0.015625 0.25q0 0.28125 -0.078125 0.40625q-0.0625 0.125 -0.1875 0.125l-1.7968712 0l0 3.921875q0 0.71875 0.203125 1.09375q0.21875 0.375 0.78125 0.375q0.171875 0 0.3125 -0.03125q0.140625 -0.046875 0.25 -0.078125q0.109375 -0.046875 0.1875 -0.078125q0.078121185 -0.03125 0.14062119 -0.03125q0.046875 0 0.078125 0.015625q0.03125 0.015625 0.046875 0.078125q0.03125 0.046875 0.046875 0.140625q0.015625 0.09375 0.015625 0.234375zm7.9375 -3.765625q0 0.125 -0.015625 0.234375q-0.015625 0.109375 -0.046875 0.1875q-0.015625 0.078125 -0.0625 0.125q-0.03125 0.03125 -0.078125 0.0625l-6.125 3.09375q-0.09375 0.03125 -0.15625 0.046875q-0.0625 0 -0.09375 -0.046875q-0.03125 -0.0625 -0.046875 -0.171875q-0.015625 -0.125 -0.015625 -0.296875q0 -0.21875 0 -0.34375q0.015625 -0.140625 0.03125 -0.21875q0.03125 -0.09375 0.078125 -0.140625q0.0625 -0.046875 0.15625 -0.078125l5.03125 -2.484375l-5.0 -2.40625q-0.109375 -0.046875 -0.171875 -0.09375q-0.046875 -0.046875 -0.078125 -0.125q-0.03125 -0.09375 -0.046875 -0.21875q0 -0.140625 0 -0.375q0 -0.203125 0.015625 -0.3125q0.015625 -0.109375 0.046875 -0.15625q0.03125 -0.0625 0.09375 -0.046875q0.0625 0 0.15625 0.046875l6.15625 3.109375q0.078125 0.03125 0.125 0.1875q0.046875 0.15625 0.046875 0.421875z" fill-rule="nonzero"/><path fill="#666666" d="m54.10937 60.583385q0 0.0625 -0.03125 0.109375q-0.03125 0.046875 -0.109375 0.078125q-0.078125 0.03125 -0.203125 0.046875q-0.125 0.015625 -0.3125 0.015625q-0.203125 0 -0.328125 -0.015625q-0.125 -0.015625 -0.203125 -0.046875q-0.078125 -0.03125 -0.109375 -0.078125q-0.03125 -0.046875 -0.03125 -0.109375l0 -4.484375l-4.609375 0l0 4.484375q0 0.0625 -0.03125 0.109375q-0.03125 0.046875 -0.109375 0.078125q-0.078125 0.03125 -0.203125 0.046875q-0.125 0.015625 -0.328125 0.015625q-0.1875 0 -0.328125 -0.015625q-0.125 -0.015625 -0.203125 -0.046875q-0.078125 -0.03125 -0.109375 -0.078125q-0.03125 -0.046875 -0.03125 -0.109375l0 -9.703125q0 -0.0625 0.03125 -0.109375q0.03125 -0.046875 0.109375 -0.078125q0.078125 -0.03125 0.203125 -0.046875q0.140625 -0.015625 0.328125 -0.015625q0.203125 0 0.328125 0.015625q0.125 0.015625 0.203125 0.046875q0.078125 0.03125 0.109375 0.078125q0.03125 0.046875 0.03125 0.109375l0 4.046875l4.609375 0l0 -4.046875q0 -0.0625 0.03125 -0.109375q0.03125 -0.046875 0.109375 -0.078125q0.078125 -0.03125 0.203125 -0.046875q0.125 -0.015625 0.328125 -0.015625q0.1875 0 0.3125 0.015625q0.125 0.015625 0.203125 0.046875q0.078125 0.03125 0.109375 0.078125q0.03125 0.046875 0.03125 0.109375l0 9.703125zm8.546875 -3.8125q0 0.296875 -0.15625 0.4375q-0.15625 0.125 -0.34375 0.125l-4.609375 0q0 0.578125 0.109375 1.046875q0.125 0.46875 0.390625 0.8125q0.28125 0.328125 0.71875 0.515625q0.4375 0.171875 1.0625 0.171875q0.5 0 0.890625 -0.078125q0.390625 -0.078125 0.671875 -0.171875q0.296875 -0.109375 0.46875 -0.1875q0.1875 -0.09375 0.28125 -0.09375q0.0625 0 0.09375 0.03125q0.046875 0.03125 0.0625 0.09375q0.03125 0.046875 0.046875 0.140625q0.015625 0.09375 0.015625 0.234375q0 0.109375 -0.015625 0.1875q0 0.0625 -0.015625 0.125q-0.015625 0.0625 -0.046875 0.109375q-0.015625 0.046875 -0.0625 0.09375q-0.046875 0.03125 -0.265625 0.140625q-0.203125 0.09375 -0.546875 0.1875q-0.328125 0.09375 -0.765625 0.171875q-0.4375 0.078125 -0.9375 0.078125q-0.875 0 -1.53125 -0.25q-0.640625 -0.25 -1.09375 -0.71875q-0.4375 -0.484375 -0.671875 -1.203125q-0.21875 -0.71875 -0.21875 -1.671875q0 -0.90625 0.234375 -1.625q0.234375 -0.71875 0.671875 -1.21875q0.4375 -0.515625 1.0625 -0.78125q0.625 -0.265625 1.40625 -0.265625q0.828125 0 1.40625 0.265625q0.578125 0.265625 0.953125 0.71875q0.375 0.4375 0.546875 1.046875q0.1875 0.609375 0.1875 1.296875l0 0.234375zm-1.296875 -0.390625q0.015625 -1.015625 -0.453125 -1.59375q-0.46875 -0.578125 -1.40625 -0.578125q-0.46875 0 -0.828125 0.1875q-0.359375 0.171875 -0.609375 0.46875q-0.234375 0.296875 -0.375 0.703125q-0.125 0.390625 -0.140625 0.8125l3.8125 0zm4.5390587 4.203125q0 0.0625 -0.03125 0.109375q-0.03125 0.046875 -0.109375 0.078125q-0.0625 0.03125 -0.1875 0.046875q-0.125 0.015625 -0.3125 0.015625q-0.1875 0 -0.3125 -0.015625q-0.125 -0.015625 -0.203125 -0.046875q-0.078125 -0.03125 -0.109375 -0.078125q-0.015625 -0.046875 -0.015625 -0.109375l0 -10.4375q0 -0.0625 0.015625 -0.109375q0.03125 -0.046875 0.109375 -0.078125q0.078125 -0.03125 0.203125 -0.046875q0.125 -0.015625 0.3125 -0.015625q0.1875 0 0.3125 0.015625q0.125 0.015625 0.1875 0.046875q0.078125 0.03125 0.109375 0.078125q0.03125 0.046875 0.03125 0.109375l0 10.4375zm3.671875 0q0 0.0625 -0.03125 0.109375q-0.03125 0.046875 -0.109375 0.078125q-0.0625 0.03125 -0.1875 0.046875q-0.125 0.015625 -0.3125 0.015625q-0.1875 0 -0.3125 -0.015625q-0.125 -0.015625 -0.203125 -0.046875q-0.078125 -0.03125 -0.109375 -0.078125q-0.015625 -0.046875 -0.015625 -0.109375l0 -10.4375q0 -0.0625 0.015625 -0.109375q0.03125 -0.046875 0.109375 -0.078125q0.078125 -0.03125 0.203125 -0.046875q0.125 -0.015625 0.3125 -0.015625q0.1875 0 0.3125 0.015625q0.125 0.015625 0.1875 0.046875q0.078125 0.03125 0.109375 0.078125q0.03125 0.046875 0.03125 0.109375l0 10.4375zm8.921875 -3.59375q0 0.859375 -0.234375 1.59375q-0.21875 0.71875 -0.671875 1.25q-0.4375 0.515625 -1.125 0.8125q-0.671875 0.296875 -1.5625 0.296875q-0.859375 0 -1.515625 -0.265625q-0.640625 -0.265625 -1.078125 -0.75q-0.421875 -0.5 -0.640625 -1.203125q-0.203125 -0.703125 -0.203125 -1.59375q0 -0.859375 0.21875 -1.578125q0.234375 -0.71875 0.671875 -1.234375q0.453125 -0.53125 1.125 -0.8125q0.671875 -0.296875 1.578125 -0.296875q0.859375 0 1.5 0.265625q0.65625 0.25 1.078125 0.75q0.4375 0.484375 0.640625 1.1875q0.21875 0.703125 0.21875 1.578125zm-1.359375 0.09375q0 -0.578125 -0.109375 -1.078125q-0.09375 -0.515625 -0.34375 -0.890625q-0.234375 -0.390625 -0.65625 -0.609375q-0.40625 -0.21875 -1.03125 -0.21875q-0.5625 0 -0.984375 0.203125q-0.40625 0.203125 -0.671875 0.578125q-0.265625 0.359375 -0.390625 0.875q-0.125 0.5 -0.125 1.109375q0 0.578125 0.09375 1.09375q0.109375 0.5 0.359375 0.875q0.25 0.375 0.65625 0.609375q0.421875 0.21875 1.03125 0.21875q0.5625 0 0.96875 -0.203125q0.421875 -0.203125 0.6875 -0.5625q0.265625 -0.375 0.390625 -0.875q0.125 -0.515625 0.125 -1.125zm5.546875 0.78125q0 0.0625 -0.03125 0.109375q-0.03125 0.046875 -0.109375 0.078125q-0.0625 0.03125 -0.171875 0.046875q-0.109375 0.015625 -0.265625 0.015625q-0.171875 0 -0.28125 -0.015625q-0.109375 -0.015625 -0.1875 -0.046875q-0.0625 -0.03125 -0.09375 -0.078125q-0.015625 -0.046875 -0.015625 -0.109375l-0.140625 -7.453125q0 -0.09375 0.03125 -0.15625q0.03125 -0.078125 0.109375 -0.125q0.078125 -0.046875 0.21875 -0.0625q0.140625 -0.015625 0.359375 -0.015625q0.203125 0 0.34375 0.03125q0.140625 0.015625 0.21875 0.0625q0.078125 0.046875 0.109375 0.109375q0.03125 0.0625 0.03125 0.15625l-0.125 7.453125zm0.234375 2.109375q0 0.25 -0.03125 0.421875q-0.03125 0.171875 -0.140625 0.28125q-0.09375 0.09375 -0.25 0.140625q-0.15625 0.046875 -0.390625 0.046875q-0.25 0 -0.40625 -0.046875q-0.15625 -0.046875 -0.25 -0.140625q-0.09375 -0.109375 -0.140625 -0.28125q-0.03125 -0.171875 -0.03125 -0.421875q0 -0.265625 0.03125 -0.4375q0.046875 -0.171875 0.140625 -0.265625q0.09375 -0.109375 0.25 -0.140625q0.15625 -0.046875 0.40625 -0.046875q0.234375 0 0.390625 0.046875q0.15625 0.03125 0.25 0.140625q0.109375 0.09375 0.140625 0.265625q0.03125 0.171875 0.03125 0.4375z" fill-rule="nonzero"/><path fill="#666666" d="m27.351557 78.52088q0 0.1875 -0.015625 0.3125q-0.015625 0.125 -0.0625 0.171875q-0.03125 0.046875 -0.09375 0.046875q-0.0625 -0.015625 -0.140625 -0.0625l-6.15625 -3.109375q-0.078125 -0.03125 -0.125 -0.171875q-0.046875 -0.15625 -0.046875 -0.4375q0 -0.125 0 -0.234375q0.015625 -0.109375 0.046875 -0.171875q0.03125 -0.078125 0.0625 -0.125q0.03125 -0.0625 0.078125 -0.078125l6.140625 -3.09375q0.171875 -0.078125 0.234375 0.015625q0.078125 0.09375 0.078125 0.453125q0 0.234375 -0.015625 0.375q-0.015625 0.125 -0.046875 0.203125q-0.015625 0.078125 -0.078125 0.125q-0.046875 0.046875 -0.140625 0.09375l-5.03125 2.453125l5.0 2.421875q0.109375 0.0625 0.15625 0.109375q0.0625 0.03125 0.09375 0.125q0.03125 0.078125 0.046875 0.21875q0.015625 0.125 0.015625 0.359375zm9.718752 -7.46875q0 0.140625 -0.015625 0.265625q-0.015625 0.109375 -0.046875 0.1875q-0.03125 0.0625 -0.078125 0.09375q-0.046875 0.03125 -0.09375 0.03125q-0.09375 0 -0.3125 -0.140625q-0.21875 -0.15625 -0.59375 -0.328125q-0.359375 -0.1875 -0.875 -0.328125q-0.515625 -0.15625 -1.21875 -0.15625q-0.828125 0 -1.5 0.3125q-0.6562519 0.296875 -1.1250019 0.84375q-0.453125 0.53125 -0.703125 1.28125q-0.25 0.734375 -0.25 1.609375q0 0.96875 0.265625 1.71875q0.28125 0.75 0.75 1.265625q0.484375 0.515625 1.1406269 0.78125q0.65625 0.265625 1.453125 0.265625q0.46875 0 0.9375 -0.109375q0.484375 -0.125 0.90625 -0.34375l0 -2.953125l-2.34375 0q-0.140625 0 -0.203125 -0.125q-0.0625 -0.140625 -0.0625 -0.421875q0 -0.140625 0.015625 -0.25q0.015625 -0.109375 0.046875 -0.171875q0.03125 -0.0625 0.078125 -0.09375q0.046875 -0.03125 0.125 -0.03125l3.203125 0q0.09375 0 0.171875 0.03125q0.09375 0.03125 0.15625 0.09375q0.078125 0.0625 0.109375 0.171875q0.046875 0.109375 0.046875 0.25l0 3.84375q0 0.203125 -0.078125 0.359375q-0.0625 0.140625 -0.296875 0.265625q-0.21875 0.109375 -0.578125 0.25q-0.359375 0.125 -0.75 0.21875q-0.375 0.09375 -0.765625 0.140625q-0.390625 0.046875 -0.78125 0.046875q-1.171875 0 -2.093752 -0.359375q-0.921875 -0.375 -1.5625 -1.046875q-0.625 -0.671875 -0.96875 -1.609375q-0.328125 -0.9375 -0.328125 -2.09375q0 -1.203125 0.359375 -2.171875q0.359375 -0.984375 1.015625 -1.671875q0.671875 -0.6875 1.59375 -1.0625q0.9218769 -0.375 2.046877 -0.375q0.578125 0 1.078125 0.109375q0.515625 0.09375 0.90625 0.234375q0.40625 0.125 0.671875 0.296875q0.265625 0.15625 0.359375 0.265625q0.109375 0.09375 0.140625 0.234375q0.046875 0.125 0.046875 0.375zm6.46875 1.96875q0 0.171875 -0.015625 0.296875q0 0.109375 -0.03125 0.171875q-0.015625 0.0625 -0.0625 0.109375q-0.03125 0.03125 -0.09375 0.03125q-0.0625 0 -0.15625 -0.03125q-0.078125 -0.046875 -0.203125 -0.078125q-0.109375 -0.03125 -0.25 -0.0625q-0.140625 -0.03125 -0.296875 -0.03125q-0.203125 0 -0.390625 0.078125q-0.1875 0.078125 -0.390625 0.265625q-0.203125 0.171875 -0.4375 0.46875q-0.21875 0.296875 -0.5 0.71875l0 4.625q0 0.0625 -0.03125 0.109375q-0.03125 0.046875 -0.109375 0.078125q-0.0625 0.03125 -0.1875 0.046875q-0.125 0.015625 -0.3125 0.015625q-0.1875 0 -0.3125 -0.015625q-0.125 -0.015625 -0.203125 -0.046875q-0.078125 -0.03125 -0.109375 -0.078125q-0.015625 -0.046875 -0.015625 -0.109375l0 -7.03125q0 -0.0625 0.015625 -0.09375q0.03125 -0.046875 0.09375 -0.078125q0.078125 -0.046875 0.1875 -0.046875q0.109375 -0.015625 0.28125 -0.015625q0.171875 0 0.28125 0.015625q0.125 0 0.1875 0.046875q0.0625 0.03125 0.078125 0.078125q0.03125 0.03125 0.03125 0.09375l0 1.03125q0.296875 -0.421875 0.546875 -0.6875q0.25 -0.265625 0.46875 -0.421875q0.234375 -0.15625 0.453125 -0.203125q0.234375 -0.0625 0.453125 -0.0625q0.109375 0 0.234375 0.015625q0.125 0 0.265625 0.03125q0.140625 0.03125 0.25 0.078125q0.125 0.03125 0.171875 0.078125q0.046875 0.03125 0.0625 0.078125q0.015625 0.03125 0.015625 0.09375q0.015625 0.046875 0.015625 0.15625q0.015625 0.09375 0.015625 0.28125zm7.2578125 2.75q0 0.296875 -0.15625 0.4375q-0.15625 0.125 -0.34375 0.125l-4.609375 0q0 0.578125 0.109375 1.046875q0.125 0.46875 0.390625 0.8125q0.28125 0.328125 0.71875 0.515625q0.4375 0.171875 1.0625 0.171875q0.5 0 0.890625 -0.078125q0.390625 -0.078125 0.671875 -0.171875q0.296875 -0.109375 0.46875 -0.1875q0.1875 -0.09375 0.28125 -0.09375q0.0625 0 0.09375 0.03125q0.046875 0.03125 0.0625 0.09375q0.03125 0.046875 0.046875 0.140625q0.015625 0.09375 0.015625 0.234375q0 0.109375 -0.015625 0.1875q0 0.0625 -0.015625 0.125q-0.015625 0.0625 -0.046875 0.109375q-0.015625 0.046875 -0.0625 0.09375q-0.046875 0.03125 -0.265625 0.140625q-0.203125 0.09375 -0.546875 0.1875q-0.328125 0.09375 -0.765625 0.171875q-0.4375 0.078125 -0.9375 0.078125q-0.875 0 -1.53125 -0.25q-0.640625 -0.25 -1.09375 -0.71875q-0.4375 -0.484375 -0.671875 -1.203125q-0.21875 -0.71875 -0.21875 -1.671875q0 -0.90625 0.234375 -1.625q0.234375 -0.71875 0.671875 -1.21875q0.4375 -0.515625 1.0625 -0.78125q0.625 -0.265625 1.40625 -0.265625q0.828125 0 1.40625 0.265625q0.578125 0.265625 0.953125 0.71875q0.375 0.4375 0.546875 1.046875q0.1875 0.609375 0.1875 1.296875l0 0.234375zm-1.296875 -0.390625q0.015625 -1.015625 -0.453125 -1.59375q-0.46875 -0.578125 -1.40625 -0.578125q-0.46875 0 -0.828125 0.1875q-0.359375 0.171875 -0.609375 0.46875q-0.234375 0.296875 -0.375 0.703125q-0.125 0.390625 -0.140625 0.8125l3.8125 0zm9.2578125 0.390625q0 0.296875 -0.15625 0.4375q-0.15625 0.125 -0.34375 0.125l-4.609375 0q0 0.578125 0.109375 1.046875q0.125 0.46875 0.390625 0.8125q0.28125 0.328125 0.71875 0.515625q0.4375 0.171875 1.0625 0.171875q0.5 0 0.890625 -0.078125q0.390625 -0.078125 0.671875 -0.171875q0.296875 -0.109375 0.46875 -0.1875q0.1875 -0.09375 0.28125 -0.09375q0.0625 0 0.09375 0.03125q0.046875 0.03125 0.0625 0.09375q0.03125 0.046875 0.046875 0.140625q0.015625 0.09375 0.015625 0.234375q0 0.109375 -0.015625 0.1875q0 0.0625 -0.015625 0.125q-0.015625 0.0625 -0.046875 0.109375q-0.015625 0.046875 -0.0625 0.09375q-0.046875 0.03125 -0.265625 0.140625q-0.203125 0.09375 -0.546875 0.1875q-0.328125 0.09375 -0.765625 0.171875q-0.4375 0.078125 -0.9375 0.078125q-0.875 0 -1.53125 -0.25q-0.640625 -0.25 -1.09375 -0.71875q-0.4375 -0.484375 -0.671875 -1.203125q-0.21875 -0.71875 -0.21875 -1.671875q0 -0.90625 0.234375 -1.625q0.234375 -0.71875 0.671875 -1.21875q0.4375 -0.515625 1.0625 -0.78125q0.625 -0.265625 1.40625 -0.265625q0.828125 0 1.40625 0.265625q0.578125 0.265625 0.953125 0.71875q0.375 0.4375 0.546875 1.046875q0.1875 0.609375 0.1875 1.296875l0 0.234375zm-1.296875 -0.390625q0.015625 -1.015625 -0.453125 -1.59375q-0.46875 -0.578125 -1.40625 -0.578125q-0.46875 0 -0.828125 0.1875q-0.359375 0.171875 -0.609375 0.46875q-0.234375 0.296875 -0.375 0.703125q-0.125 0.390625 -0.140625 0.8125l3.8125 0zm6.828121 3.6875q0 0.234375 -0.03125 0.375q-0.03125 0.125 -0.09375 0.1875q-0.0625 0.0625 -0.18749619 0.125q-0.125 0.046875 -0.296875 0.078125q-0.15625 0.046875 -0.34375 0.0625q-0.171875 0.03125 -0.34375 0.03125q-0.546875 0 -0.9375 -0.140625q-0.390625 -0.15625 -0.640625 -0.453125q-0.25 -0.296875 -0.375 -0.734375q-0.109375 -0.453125 -0.109375 -1.0625l0 -4.109375l-0.984375 0q-0.109375 0 -0.1875 -0.125q-0.0625 -0.125 -0.0625 -0.40625q0 -0.15625 0.015625 -0.25q0.015625 -0.109375 0.046875 -0.171875q0.03125 -0.0625 0.078125 -0.09375q0.0625 -0.03125 0.125 -0.03125l0.96875 0l0 -1.671875q0 -0.046875 0.03125 -0.09375q0.03125 -0.046875 0.09375 -0.078125q0.078125 -0.046875 0.203125 -0.0625q0.125 -0.015625 0.3125 -0.015625q0.203125 0 0.328125 0.015625q0.125 0.015625 0.1875 0.0625q0.078125 0.03125 0.109375 0.078125q0.03125 0.046875 0.03125 0.09375l0 1.671875l1.7968712 0q0.0625 0 0.109375 0.03125q0.046875 0.03125 0.078125 0.09375q0.046875 0.0625 0.0625 0.171875q0.015625 0.09375 0.015625 0.25q0 0.28125 -0.078125 0.40625q-0.0625 0.125 -0.1875 0.125l-1.7968712 0l0 3.921875q0 0.71875 0.203125 1.09375q0.21875 0.375 0.78125 0.375q0.171875 0 0.3125 -0.03125q0.140625 -0.046875 0.25 -0.078125q0.109375 -0.046875 0.1875 -0.078125q0.078121185 -0.03125 0.14062119 -0.03125q0.046875 0 0.078125 0.015625q0.03125 0.015625 0.046875 0.078125q0.03125 0.046875 0.046875 0.140625q0.015625 0.09375 0.015625 0.234375zm1.8125 2.609375q-0.03125 0.09375 -0.078125 0.15625q-0.046875 0.0625 -0.125 0.09375q-0.078125 0.03125 -0.203125 0.046875q-0.109375 0.015625 -0.265625 0.015625q-0.203125 0 -0.328125 -0.03125q-0.125 -0.03125 -0.203125 -0.078125q-0.0625 -0.046875 -0.078125 -0.125q-0.015625 -0.078125 0.03125 -0.171875l4.71875 -12.96875q0.03125 -0.109375 0.078125 -0.15625q0.0625 -0.0625 0.125 -0.09375q0.078125 -0.046875 0.1875 -0.046875q0.125 -0.015625 0.296875 -0.015625q0.1875 0 0.3125 0.03125q0.125 0.015625 0.1875 0.0625q0.078125 0.046875 0.09375 0.125q0.015625 0.078125 -0.015625 0.1875l-4.734375 12.96875zm12.3046875 -6.375q0 0.125 -0.015625 0.234375q-0.015625 0.109375 -0.046875 0.1875q-0.015625 0.078125 -0.0625 0.125q-0.03125 0.03125 -0.078125 0.0625l-6.125 3.09375q-0.09375 0.03125 -0.15625 0.046875q-0.0625 0 -0.09375 -0.046875q-0.03125 -0.0625 -0.046875 -0.171875q-0.015625 -0.125 -0.015625 -0.296875q0 -0.21875 0 -0.34375q0.015625 -0.140625 0.03125 -0.21875q0.03125 -0.09375 0.078125 -0.140625q0.0625 -0.046875 0.15625 -0.078125l5.03125 -2.484375l-5.0 -2.40625q-0.109375 -0.046875 -0.171875 -0.09375q-0.046875 -0.046875 -0.078125 -0.125q-0.03125 -0.09375 -0.046875 -0.21875q0 -0.140625 0 -0.375q0 -0.203125 0.015625 -0.3125q0.015625 -0.109375 0.046875 -0.15625q0.03125 -0.0625 0.09375 -0.046875q0.0625 0 0.15625 0.046875l6.15625 3.109375q0.078125 0.03125 0.125 0.1875q0.046875 0.15625 0.046875 0.421875z" fill-rule="nonzero"/></g></svg>