<svg version="1.1" viewBox="0.0 0.0 960.0 720.0" fill="none" stroke="none" stroke-linecap="square" stroke-miterlimit="10" xmlns:xlink="http://www.w3.org/1999/xlink" xmlns="http://www.w3.org/2000/svg"><clipPath id="p.0"><path d="m0 0l960.0 0l0 720.0l-960.0 0l0 -720.0z" clip-rule="nonzero"/></clipPath><g clip-path="url(#p.0)"><path fill="#000000" fill-opacity="0.0" d="m0 0l960.0 0l0 720.0l-960.0 0z" fill-rule="evenodd"/><path fill="#666666" d="m97.54712 319.46228c-2.1289062 0.6506958 -4.328766 1.583374 -6.599617 2.7980042c-2.2579193 1.2059631 -4.451355 2.6808777 -6.580261 4.4247437c-2.1289062 1.7438965 -4.154579 3.7480469 -6.077057 6.0124817c-1.9095535 2.2644348 -3.580429 4.7631226 -5.012596 7.4960327c-1.4321747 2.7589722 -2.567566 5.7608643 -3.4062347 9.005676c-0.825737 3.236145 -1.238617 6.6891785 -1.2386017 10.3591l0 0.85891724c1.5258789E-5 3.695984 0.4129181 7.1576843 1.2386703 10.385162c0.8386917 3.2274475 1.9741058 6.2076416 3.4062958 8.940582c1.4321823 2.7589417 3.1030807 5.27063 5.012642 7.5350647c1.922493 2.2644043 3.9481812 4.255554 6.0771027 5.9733887c2.1289139 1.743866 4.322357 3.2274475 6.580284 4.4507446c2.2708588 1.2233276 4.470726 2.1603088 6.59964 2.8110046l3.135292 -5.8562927c-1.5095978 -0.78082275 -3.0385437 -1.7568665 -4.586853 -2.928131c-1.5483017 -1.1712341 -3.019188 -2.5507202 -4.4126663 -4.1384277c-1.3160629 -1.45755 -2.5482407 -3.162384 -3.6965866 -5.1144714c-1.1354141 -1.9520874 -2.1289215 -4.0733643 -2.9804993 -6.3638c-0.61932373 -1.6397705 -1.1934814 -3.8391418 -1.7225037 -6.5980835c-0.516098 -2.7589722 -0.7741699 -5.7651978 -0.77417755 -9.018677l0 -1.0150757c-1.5258789E-5 -3.305542 0.27092743 -6.3638306 0.81282043 -9.174835c0.54190063 -2.8110352 1.2579803 -5.3747864 2.1482468 -7.6912537c1.0063858 -2.3945923 2.1740646 -4.606964 3.503006 -6.637146c1.3418655 -2.030182 2.7869263 -3.7870483 4.3352203 -5.2706604c1.1999283 -1.1452332 2.4192123 -2.1603088 3.6578522 -3.0452576c1.2386398 -0.88494873 2.477272 -1.6397705 3.7159119 -2.2644348l-3.1353302 -5.9343567z" fill-rule="evenodd"/><path fill="#666666" d="m141.38338 319.46216l-3.07724 5.8172607c1.1612396 0.5986328 2.3289185 1.3230896 3.5030365 2.1733093c1.1870575 0.84158325 2.3418121 1.795929 3.4643402 2.8630676c1.6644287 1.613739 3.238556 3.5267944 4.722336 5.7391357c1.4967041 2.2123718 2.7675934 4.7110596 3.8127136 7.4960327c0.8128662 2.2384033 1.4580078 4.685028 1.9353943 7.3398743c0.49031067 2.6548462 0.7354584 5.517914 0.73547363 8.589203l0 1.0151062c1.5258789E-5 3.1493835 -0.24511719 6.0775146 -0.7354126 8.784424c-0.47737122 2.7069092 -1.1224976 5.179535 -1.9353485 7.417938c-0.9676819 2.4466248 -2.083725 4.659027 -3.348175 6.637146c-1.2515259 1.9781189 -2.6321106 3.7480164 -4.141693 5.3096924c-1.2773438 1.3274231 -2.593399 2.4900208 -3.9481506 3.4877625c-1.3547668 1.0064087 -2.7095184 1.8479614 -4.0642853 2.5247192l3.0772705 5.856262c2.2063293 -0.6506958 4.4707184 -1.6007385 6.793152 -2.8500671c2.3224487 -1.2493591 4.586838 -2.7720032 6.793152 -4.567932c2.2063293 -1.7698975 4.2836304 -3.7957458 6.231888 -6.0775146c1.9611664 -2.2731018 3.6772003 -4.789154 5.1480865 -7.5480957c1.470871 -2.7589722 2.63208 -5.7304993 3.4836426 -8.914581c0.85154724 -3.192749 1.2773285 -6.572052 1.2773132 -10.137878l0 -0.85891724c-1.5258789E-5 -3.5658264 -0.42581177 -6.9407654 -1.2773895 -10.124847c-0.85157776 -3.192749 -2.0128021 -6.1686096 -3.4837036 -8.927582c-1.4708862 -2.7589417 -3.1869354 -5.2749634 -5.148117 -7.548065c-1.9482727 -2.2817993 -4.0256042 -4.320648 -6.2319336 -6.1165466c-2.2063293 -1.7698975 -4.4707184 -3.2795105 -6.7931824 -4.528839c-2.3224487 -1.2493591 -4.586838 -2.1993713 -6.793167 -2.8500671z" fill-rule="evenodd"/><path fill="#666666" d="m200.48982 345.77625l1.5258789E-5 8.90155l54.92595 -1.2207031E-4l-3.0517578E-5 -8.90152zm4.5776367E-5 16.866089l3.0517578E-5 8.862518l54.92595 -1.2207031E-4l-3.0517578E-5 -8.862518z" fill-rule="evenodd"/><path fill="#666666" d="m272.02127 339.60748l3.0517578E-5 10.502258l33.32718 7.378845l3.483673 0.78082275l-3.5417175 0.7808533l-33.269073 7.4961243l3.0517578E-5 10.54129l52.255066 -14.328491l-3.0517578E-5 -8.862488l-52.255157 -14.289215z" fill-rule="evenodd"/><path fill="#666666" d="m388.60822 320.32056c-3.7546387 0 -6.986725 0.48153687 -9.696228 1.4445496c-2.7095337 0.9630432 -4.896515 2.1993713 -6.560913 3.709015c-2.0127869 1.743866 -3.483673 3.7957458 -4.412628 6.155609c-0.9289856 2.3511963 -1.3934631 4.632965 -1.3934631 6.845337l3.0517578E-5 6.3638306c0 3.5137634 -1.1999207 6.0254517 -3.5997925 7.5350647c-2.3998413 1.5096436 -6.0577087 2.2644653 -10.973572 2.2644653l3.0517578E-5 7.80838c4.915863 -3.0517578E-5 8.57373 0.75479126 10.973602 2.2644043c2.3998718 1.509613 3.5997925 3.9952698 3.599823 7.45697l0 6.3638306c3.0517578E-5 2.0562134 0.41290283 4.155792 1.238678 6.298767c0.83865356 2.1516418 2.1869812 4.1253967 4.0449524 5.9213257c1.7418518 1.7178345 4.0126953 3.1407166 6.8125305 4.268585c2.8127441 1.1365356 6.135132 1.7048035 9.967194 1.7048035l1.97406 -6.16864l0 0c-0.13049316 0.0035095215 -0.25933838 0.005279541 -0.38659668 0.005279541c-1.7602844 0 -3.211975 -0.3357849 -4.355072 -1.0073242c-1.2128296 -0.7114258 -2.167633 -1.652771 -2.86438 -2.8240356c-0.6967468 -1.1712646 -1.1741333 -2.4813232 -1.43219 -3.9302063c-0.2451477 -1.4402161 -0.36773682 -2.8630676 -0.36773682 -4.268585l0 -6.3638306c-3.0517578E-5 -3.0973206 -1.1225586 -5.8302307 -3.3675842 -8.198761c-2.2450562 -2.3685608 -5.7674255 -4.17749 -10.567169 -5.426819c4.761017 -1.2493286 8.270477 -3.071289 10.528412 -5.4658813c2.2708435 -2.3945618 3.40625 -5.140503 3.40625 -8.2378235l-3.0517578E-5 -6.3638306c0 -1.4055176 0.045166016 -2.8283691 0.13546753 -4.268585c0.10321045 -1.448883 0.4451294 -2.7589417 1.0257263 -3.9302063c0.5805969 -1.1712646 1.5095825 -2.1126099 2.7869263 -2.8240356c1.1912231 -0.6715698 2.8537598 -1.0073547 4.98761 -1.0073547c0.15426636 0 0.31097412 0.001739502 0.4701538 0.0052490234l-1.9740906 -6.129547z" fill-rule="evenodd"/><path fill="#666666" d="m854.78204 320.31952l-1.97406 6.1295776c0.15917969 -0.0035095215 0.31585693 -0.005279541 0.4701538 -0.005279541c2.133789 0 3.7963257 0.3357849 4.98761 1.0073547c1.2773438 0.7114258 2.2062988 1.6527405 2.7869263 2.8240051c0.58062744 1.1712646 0.91607666 2.4813232 1.0064087 3.9302063c0.10321045 1.4402161 0.15484619 2.8630676 0.15484619 4.268585l0 6.3638306c0 1.795929 0.36773682 3.496399 1.1032104 5.101471c0.7354126 1.5963745 1.8773193 3.0452576 3.4255981 4.346649c1.045105 0.88494873 2.2837524 1.691803 3.7159424 2.4205933c1.43219 0.72875977 3.0772705 1.3534241 4.9352417 1.8739929c-2.2837524 0.6506958 -4.251404 1.4402161 -5.902893 2.3685608c-1.6386108 0.9196472 -2.999817 1.9651184 -4.083618 3.1363525c-1.0838623 1.1712646 -1.8901978 2.4336243 -2.4192505 3.7870789c-0.51605225 1.3534546 -0.7741089 2.7849731 -0.7741089 4.2946167l0 6.3638c0 1.4055176 -0.13543701 2.8283691 -0.4064331 4.268585c-0.27093506 1.448883 -0.75476074 2.7589722 -1.451477 3.9302368c-0.6967163 1.1712341 -1.657959 2.1125793 -2.883728 2.8240356c-1.1310425 0.6715393 -2.5595093 1.0073242 -4.2852783 1.0073242c-0.124816895 0 -0.25109863 -0.001739502 -0.3789673 -0.0052490234l0 0l1.9741211 6.1686096c3.8320312 0 7.1480103 -0.55526733 9.947815 -1.665802c2.8127441 -1.1018677 5.090027 -2.5507507 6.831848 -4.3466797c1.7418213 -1.717865 3.0578613 -3.6699524 3.9481812 -5.8562927c0.8902588 -2.1863403 1.3353882 -4.2946167 1.3353882 -6.3247986l-6.1035156E-5 -6.3638c0 -1.2233276 0.14196777 -2.3208313 0.42578125 -3.2925415c0.29675293 -0.9803772 0.7354126 -1.8349609 1.31604 -2.5637512c1.0838013 -1.3534546 2.6901855 -2.3338623 4.819092 -2.941162c2.1289062 -0.6159973 4.7997437 -0.92401123 8.012451 -0.92401123l-6.1035156E-5 -7.80838c-2.8643188 0 -5.315796 -0.24725342 -7.35437 -0.7417908c-2.0256958 -0.49450684 -3.5998535 -1.2753601 -4.722351 -2.3424988c-0.8515625 -0.78082275 -1.4837646 -1.730835 -1.8966675 -2.8500366c-0.39996338 -1.1192017 -0.5999756 -2.4075928 -0.5999756 -3.8651428l-6.1035156E-5 -6.3638306c0 -1.9781189 -0.3612671 -4.025635 -1.0838013 -6.142578c-0.70965576 -2.1256104 -1.9160156 -4.047333 -3.6192017 -5.765167c-1.7805176 -1.9000549 -4.083618 -3.4140015 -6.9093018 -4.54187c-2.8256226 -1.1365356 -6.309326 -1.7048035 -10.450989 -1.7048035z" fill-rule="evenodd"/><path stroke="#ffffff" stroke-width="1.0" stroke-linejoin="bevel" stroke-linecap="butt" d="m97.54712 319.46228c-2.1289062 0.6506958 -4.328766 1.583374 -6.599617 2.7980042c-2.2579193 1.2059631 -4.451355 2.6808777 -6.580261 4.4247437c-2.1289062 1.7438965 -4.154579 3.7480469 -6.077057 6.0124817c-1.9095535 2.2644348 -3.580429 4.7631226 -5.012596 7.4960327c-1.4321747 2.7589722 -2.567566 5.7608643 -3.4062347 9.005676c-0.825737 3.236145 -1.238617 6.6891785 -1.2386017 10.3591l0 0.85891724c1.5258789E-5 3.695984 0.4129181 7.1576843 1.2386703 10.385162c0.8386917 3.2274475 1.9741058 6.2076416 3.4062958 8.940582c1.4321823 2.7589417 3.1030807 5.27063 5.012642 7.5350647c1.922493 2.2644043 3.9481812 4.255554 6.0771027 5.9733887c2.1289139 1.743866 4.322357 3.2274475 6.580284 4.4507446c2.2708588 1.2233276 4.470726 2.1603088 6.59964 2.8110046l3.135292 -5.8562927c-1.5095978 -0.78082275 -3.0385437 -1.7568665 -4.586853 -2.928131c-1.5483017 -1.1712341 -3.019188 -2.5507202 -4.4126663 -4.1384277c-1.3160629 -1.45755 -2.5482407 -3.162384 -3.6965866 -5.1144714c-1.1354141 -1.9520874 -2.1289215 -4.0733643 -2.9804993 -6.3638c-0.61932373 -1.6397705 -1.1934814 -3.8391418 -1.7225037 -6.5980835c-0.516098 -2.7589722 -0.7741699 -5.7651978 -0.77417755 -9.018677l0 -1.0150757c-1.5258789E-5 -3.305542 0.27092743 -6.3638306 0.81282043 -9.174835c0.54190063 -2.8110352 1.2579803 -5.3747864 2.1482468 -7.6912537c1.0063858 -2.3945923 2.1740646 -4.606964 3.503006 -6.637146c1.3418655 -2.030182 2.7869263 -3.7870483 4.3352203 -5.2706604c1.1999283 -1.1452332 2.4192123 -2.1603088 3.6578522 -3.0452576c1.2386398 -0.88494873 2.477272 -1.6397705 3.7159119 -2.2644348l-3.1353302 -5.9343567z" fill-rule="evenodd"/><path stroke="#ffffff" stroke-width="1.0" stroke-linejoin="bevel" stroke-linecap="butt" d="m141.38338 319.46216l-3.07724 5.8172607c1.1612396 0.5986328 2.3289185 1.3230896 3.5030365 2.1733093c1.1870575 0.84158325 2.3418121 1.795929 3.4643402 2.8630676c1.6644287 1.613739 3.238556 3.5267944 4.722336 5.7391357c1.4967041 2.2123718 2.7675934 4.7110596 3.8127136 7.4960327c0.8128662 2.2384033 1.4580078 4.685028 1.9353943 7.3398743c0.49031067 2.6548462 0.7354584 5.517914 0.73547363 8.589203l0 1.0151062c1.5258789E-5 3.1493835 -0.24511719 6.0775146 -0.7354126 8.784424c-0.47737122 2.7069092 -1.1224976 5.179535 -1.9353485 7.417938c-0.9676819 2.4466248 -2.083725 4.659027 -3.348175 6.637146c-1.2515259 1.9781189 -2.6321106 3.7480164 -4.141693 5.3096924c-1.2773438 1.3274231 -2.593399 2.4900208 -3.9481506 3.4877625c-1.3547668 1.0064087 -2.7095184 1.8479614 -4.0642853 2.5247192l3.0772705 5.856262c2.2063293 -0.6506958 4.4707184 -1.6007385 6.793152 -2.8500671c2.3224487 -1.2493591 4.586838 -2.7720032 6.793152 -4.567932c2.2063293 -1.7698975 4.2836304 -3.7957458 6.231888 -6.0775146c1.9611664 -2.2731018 3.6772003 -4.789154 5.1480865 -7.5480957c1.470871 -2.7589722 2.63208 -5.7304993 3.4836426 -8.914581c0.85154724 -3.192749 1.2773285 -6.572052 1.2773132 -10.137878l0 -0.85891724c-1.5258789E-5 -3.5658264 -0.42581177 -6.9407654 -1.2773895 -10.124847c-0.85157776 -3.192749 -2.0128021 -6.1686096 -3.4837036 -8.927582c-1.4708862 -2.7589417 -3.1869354 -5.2749634 -5.148117 -7.548065c-1.9482727 -2.2817993 -4.0256042 -4.320648 -6.2319336 -6.1165466c-2.2063293 -1.7698975 -4.4707184 -3.2795105 -6.7931824 -4.528839c-2.3224487 -1.2493591 -4.586838 -2.1993713 -6.793167 -2.8500671z" fill-rule="evenodd"/><path stroke="#ffffff" stroke-width="1.0" stroke-linejoin="bevel" stroke-linecap="butt" d="m200.48982 345.77625l1.5258789E-5 8.90155l54.92595 -1.2207031E-4l-3.0517578E-5 -8.90152zm4.5776367E-5 16.866089l3.0517578E-5 8.862518l54.92595 -1.2207031E-4l-3.0517578E-5 -8.862518z" fill-rule="evenodd"/><path stroke="#ffffff" stroke-width="1.0" stroke-linejoin="bevel" stroke-linecap="butt" d="m272.02127 339.60748l3.0517578E-5 10.502258l33.32718 7.378845l3.483673 0.78082275l-3.5417175 0.7808533l-33.269073 7.4961243l3.0517578E-5 10.54129l52.255066 -14.328491l-3.0517578E-5 -8.862488l-52.255157 -14.289215z" fill-rule="evenodd"/><path stroke="#ffffff" stroke-width="1.0" stroke-linejoin="bevel" stroke-linecap="butt" d="m388.60822 320.32056c-3.7546387 0 -6.986725 0.48153687 -9.696228 1.4445496c-2.7095337 0.9630432 -4.896515 2.1993713 -6.560913 3.709015c-2.0127869 1.743866 -3.483673 3.7957458 -4.412628 6.155609c-0.9289856 2.3511963 -1.3934631 4.632965 -1.3934631 6.845337l3.0517578E-5 6.3638306c0 3.5137634 -1.1999207 6.0254517 -3.5997925 7.5350647c-2.3998413 1.5096436 -6.0577087 2.2644653 -10.973572 2.2644653l3.0517578E-5 7.80838c4.915863 -3.0517578E-5 8.57373 0.75479126 10.973602 2.2644043c2.3998718 1.509613 3.5997925 3.9952698 3.599823 7.45697l0 6.3638306c3.0517578E-5 2.0562134 0.41290283 4.155792 1.238678 6.298767c0.83865356 2.1516418 2.1869812 4.1253967 4.0449524 5.9213257c1.7418518 1.7178345 4.0126953 3.1407166 6.8125305 4.268585c2.8127441 1.1365356 6.135132 1.7048035 9.967194 1.7048035l1.97406 -6.16864l0 0c-0.13049316 0.0035095215 -0.25933838 0.005279541 -0.38659668 0.005279541c-1.7602844 0 -3.211975 -0.3357849 -4.355072 -1.0073242c-1.2128296 -0.7114258 -2.167633 -1.652771 -2.86438 -2.8240356c-0.6967468 -1.1712646 -1.1741333 -2.4813232 -1.43219 -3.9302063c-0.2451477 -1.4402161 -0.36773682 -2.8630676 -0.36773682 -4.268585l0 -6.3638306c-3.0517578E-5 -3.0973206 -1.1225586 -5.8302307 -3.3675842 -8.198761c-2.2450562 -2.3685608 -5.7674255 -4.17749 -10.567169 -5.426819c4.761017 -1.2493286 8.270477 -3.071289 10.528412 -5.4658813c2.2708435 -2.3945618 3.40625 -5.140503 3.40625 -8.2378235l-3.0517578E-5 -6.3638306c0 -1.4055176 0.045166016 -2.8283691 0.13546753 -4.268585c0.10321045 -1.448883 0.4451294 -2.7589417 1.0257263 -3.9302063c0.5805969 -1.1712646 1.5095825 -2.1126099 2.7869263 -2.8240356c1.1912231 -0.6715698 2.8537598 -1.0073547 4.98761 -1.0073547c0.15426636 0 0.31097412 0.001739502 0.4701538 0.0052490234l-1.9740906 -6.129547z" fill-rule="evenodd"/><path stroke="#ffffff" stroke-width="1.0" stroke-linejoin="bevel" stroke-linecap="butt" d="m854.78204 320.31952l-1.97406 6.1295776c0.15917969 -0.0035095215 0.31585693 -0.005279541 0.4701538 -0.005279541c2.133789 0 3.7963257 0.3357849 4.98761 1.0073547c1.2773438 0.7114258 2.2062988 1.6527405 2.7869263 2.8240051c0.58062744 1.1712646 0.91607666 2.4813232 1.0064087 3.9302063c0.10321045 1.4402161 0.15484619 2.8630676 0.15484619 4.268585l0 6.3638306c0 1.795929 0.36773682 3.496399 1.1032104 5.101471c0.7354126 1.5963745 1.8773193 3.0452576 3.4255981 4.346649c1.045105 0.88494873 2.2837524 1.691803 3.7159424 2.4205933c1.43219 0.72875977 3.0772705 1.3534241 4.9352417 1.8739929c-2.2837524 0.6506958 -4.251404 1.4402161 -5.902893 2.3685608c-1.6386108 0.9196472 -2.999817 1.9651184 -4.083618 3.1363525c-1.0838623 1.1712646 -1.8901978 2.4336243 -2.4192505 3.7870789c-0.51605225 1.3534546 -0.7741089 2.7849731 -0.7741089 4.2946167l0 6.3638c0 1.4055176 -0.13543701 2.8283691 -0.4064331 4.268585c-0.27093506 1.448883 -0.75476074 2.7589722 -1.451477 3.9302368c-0.6967163 1.1712341 -1.657959 2.1125793 -2.883728 2.8240356c-1.1310425 0.6715393 -2.5595093 1.0073242 -4.2852783 1.0073242c-0.124816895 0 -0.25109863 -0.001739502 -0.3789673 -0.0052490234l0 0l1.9741211 6.1686096c3.8320312 0 7.1480103 -0.55526733 9.947815 -1.665802c2.8127441 -1.1018677 5.090027 -2.5507507 6.831848 -4.3466797c1.7418213 -1.717865 3.0578613 -3.6699524 3.9481812 -5.8562927c0.8902588 -2.1863403 1.3353882 -4.2946167 1.3353882 -6.3247986l-6.1035156E-5 -6.3638c0 -1.2233276 0.14196777 -2.3208313 0.42578125 -3.2925415c0.29675293 -0.9803772 0.7354126 -1.8349609 1.31604 -2.5637512c1.0838013 -1.3534546 2.6901855 -2.3338623 4.819092 -2.941162c2.1289062 -0.6159973 4.7997437 -0.92401123 8.012451 -0.92401123l-6.1035156E-5 -7.80838c-2.8643188 0 -5.315796 -0.24725342 -7.35437 -0.7417908c-2.0256958 -0.49450684 -3.5998535 -1.2753601 -4.722351 -2.3424988c-0.8515625 -0.78082275 -1.4837646 -1.730835 -1.8966675 -2.8500366c-0.39996338 -1.1192017 -0.5999756 -2.4075928 -0.5999756 -3.8651428l-6.1035156E-5 -6.3638306c0 -1.9781189 -0.3612671 -4.025635 -1.0838013 -6.142578c-0.70965576 -2.1256104 -1.9160156 -4.047333 -3.6192017 -5.765167c-1.7805176 -1.9000549 -4.083618 -3.4140015 -6.9093018 -4.54187c-2.8256226 -1.1365356 -6.309326 -1.7048035 -10.450989 -1.7048035z" fill-rule="evenodd"/></g></svg>