<svg version="1.1" viewBox="0.0 0.0 114.40944881889764 109.85039370078741" fill="none" stroke="none" stroke-linecap="square" stroke-miterlimit="10" xmlns:xlink="http://www.w3.org/1999/xlink" xmlns="http://www.w3.org/2000/svg"><clipPath id="p.0"><path d="m0 0l114.40945 0l0 109.850395l-114.40945 0l0 -109.850395z" clip-rule="nonzero"/></clipPath><g clip-path="url(#p.0)"><path fill="#000000" fill-opacity="0.0" d="m0 0l114.40945 0l0 109.850395l-114.40945 0z" fill-rule="evenodd"/><path fill="#000000" fill-opacity="0.0" d="m8.018373 33.446194l0 0c0 -5.9316254 4.8085327 -10.740156 10.740157 -10.740156l3.7427826 0l0 0l21.724411 0l39.950127 0c2.8484726 0 5.580269 1.1315479 7.5944443 3.1457176c2.0141678 2.0141716 3.1457138 4.7459717 3.1457138 7.5944386l0 26.850395l0 0l0 16.110233l0 0c0 5.9316254 -4.8085327 10.740158 -10.740158 10.740158l-39.950127 0l-10.861916 8.055122l-10.862495 -8.055122l-3.7427826 0c-5.9316244 0 -10.740157 -4.8085327 -10.740157 -10.740158l0 0l0 -16.110233l0 0z" fill-rule="evenodd"/><path stroke="#666666" stroke-width="2.0" stroke-linejoin="round" stroke-linecap="butt" d="m8.018373 33.446194l0 0c0 -5.9316254 4.8085327 -10.740156 10.740157 -10.740156l3.7427826 0l0 0l21.724411 0l39.950127 0c2.8484726 0 5.580269 1.1315479 7.5944443 3.1457176c2.0141678 2.0141716 3.1457138 4.7459717 3.1457138 7.5944386l0 26.850395l0 0l0 16.110233l0 0c0 5.9316254 -4.8085327 10.740158 -10.740158 10.740158l-39.950127 0l-10.861916 8.055122l-10.862495 -8.055122l-3.7427826 0c-5.9316244 0 -10.740157 -4.8085327 -10.740157 -10.740158l0 0l0 -16.110233l0 0z" fill-rule="evenodd"/><path fill="#666666" d="m27.351557 40.520885q0 0.1875 -0.015625 0.3125q-0.015625 0.125 -0.0625 0.171875q-0.03125 0.046875 -0.09375 0.046875q-0.0625 -0.015625 -0.140625 -0.0625l-6.15625 -3.109375q-0.078125 -0.03125 -0.125 -0.171875q-0.046875 -0.15625 -0.046875 -0.4375q0 -0.125 0 -0.234375q0.015625 -0.109375 0.046875 -0.171875q0.03125 -0.078125 0.0625 -0.125q0.03125 -0.0625 0.078125 -0.078125l6.140625 -3.09375q0.171875 -0.078125 0.234375 0.015625q0.078125 0.09375 0.078125 0.453125q0 0.234375 -0.015625 0.375q-0.015625 0.125 -0.046875 0.203125q-0.015625 0.078125 -0.078125 0.125q-0.046875 0.046875 -0.140625 0.09375l-5.03125 2.453125l5.0 2.421875q0.109375 0.0625 0.15625 0.109375q0.0625 0.03125 0.09375 0.125q0.03125 0.078125 0.046875 0.21875q0.015625 0.125 0.015625 0.359375zm7.375002 0.671875q0 0.15625 -0.015625 0.265625q-0.015625 0.109375 -0.0625 0.1875q-0.03125 0.0625 -0.078125 0.109375q-0.046875 0.03125 -0.125 0.03125l-4.468752 0q-0.171875 0 -0.34375 -0.125q-0.15625 -0.125 -0.15625 -0.421875l0 -9.359377q0 -0.0625 0.03125 -0.109375q0.03125 -0.046875 0.109375 -0.078125q0.078125 -0.03125 0.203125 -0.046875q0.140625 -0.015625 0.328125 -0.015625q0.203125 0 0.328125 0.015625q0.125 0.015625 0.203125 0.046875q0.078125 0.03125 0.109375 0.078125q0.03125 0.046875 0.03125 0.109375l0 8.734377l3.625002 0q0.078125 0 0.125 0.046875q0.046875 0.03125 0.078125 0.09375q0.046875 0.0625 0.0625 0.171875q0.015625 0.109375 0.015625 0.265625zm7.3359375 -3.421875q0 0.296875 -0.15625 0.4375q-0.15625 0.125 -0.34375 0.125l-4.609375 0q0 0.578125 0.109375 1.046875q0.125 0.46875 0.390625 0.8125q0.28125 0.328125 0.71875 0.515625q0.4375 0.171875 1.0625 0.171875q0.5 0 0.890625 -0.078125q0.390625 -0.078125 0.671875 -0.171875q0.296875 -0.109375 0.46875 -0.1875q0.1875 -0.09375 0.28125 -0.09375q0.0625 0 0.09375 0.03125q0.046875 0.03125 0.0625 0.09375q0.03125 0.046875 0.046875 0.140625q0.015625 0.09375 0.015625 0.234375q0 0.109375 -0.015625 0.1875q0 0.0625 -0.015625 0.125q-0.015625 0.0625 -0.046875 0.109375q-0.015625 0.046875 -0.0625 0.09375q-0.046875 0.03125 -0.265625 0.140625q-0.203125 0.09375 -0.546875 0.1875q-0.328125 0.09375 -0.765625 0.171875q-0.4375 0.078125 -0.9375 0.078125q-0.875 0 -1.53125 -0.25q-0.640625 -0.25 -1.09375 -0.71875q-0.4375 -0.484375 -0.671875 -1.203125q-0.21875 -0.71875 -0.21875 -1.671875q0 -0.90625 0.234375 -1.625q0.234375 -0.71875 0.671875 -1.21875q0.4375 -0.515625 1.0625 -0.78125q0.625 -0.265625 1.40625 -0.265625q0.828125 0 1.40625 0.265625q0.578125 0.265625 0.953125 0.71875q0.375 0.4375 0.546875 1.046875q0.1875 0.609375 0.1875 1.296875l0 0.234375zm-1.296875 -0.390625q0.015625 -1.015625 -0.453125 -1.59375q-0.46875 -0.578125 -1.40625 -0.578125q-0.46875 0 -0.828125 0.1875q-0.359375 0.171875 -0.609375 0.46875q-0.234375 0.296875 -0.375 0.703125q-0.125 0.390625 -0.140625 0.8125l3.8125 0zm8.5546875 4.21875q0 0.09375 -0.0625 0.140625q-0.0625 0.046875 -0.171875 0.0625q-0.109375 0.03125 -0.328125 0.03125q-0.203125 0 -0.328125 -0.03125q-0.109375 -0.015625 -0.171875 -0.0625q-0.046875 -0.046875 -0.046875 -0.140625l0 -0.703125q-0.46875 0.484375 -1.03125 0.765625q-0.5625 0.28125 -1.203125 0.28125q-0.546875 0 -1.0 -0.15625q-0.453125 -0.140625 -0.765625 -0.40625q-0.3125 -0.28125 -0.5 -0.671875q-0.171875 -0.40625 -0.171875 -0.921875q0 -0.59375 0.234375 -1.03125q0.25 -0.4375 0.703125 -0.71875q0.453125 -0.296875 1.109375 -0.4375q0.65625 -0.140625 1.484375 -0.140625l0.96875 0l0 -0.546875q0 -0.40625 -0.09375 -0.71875q-0.078125 -0.3125 -0.28125 -0.515625q-0.1875 -0.21875 -0.5 -0.3125q-0.296875 -0.109375 -0.734375 -0.109375q-0.484375 0 -0.859375 0.109375q-0.375 0.109375 -0.671875 0.25q-0.28125 0.140625 -0.46875 0.25q-0.1875 0.109375 -0.28125 0.109375q-0.0625 0 -0.109375 -0.03125q-0.046875 -0.03125 -0.09375 -0.09375q-0.03125 -0.0625 -0.046875 -0.15625q-0.015625 -0.09375 -0.015625 -0.21875q0 -0.1875 0.03125 -0.296875q0.03125 -0.125 0.125 -0.21875q0.109375 -0.109375 0.359375 -0.234375q0.265625 -0.140625 0.59375 -0.25q0.34375 -0.125 0.734375 -0.1875q0.40625 -0.078125 0.8125 -0.078125q0.765625 0 1.296875 0.171875q0.53125 0.171875 0.859375 0.5q0.328125 0.328125 0.46875 0.828125q0.15625 0.484375 0.15625 1.140625l0 4.75zm-1.28125 -3.21875l-1.109375 0q-0.53125 0 -0.921875 0.09375q-0.390625 0.09375 -0.65625 0.265625q-0.25 0.171875 -0.375 0.421875q-0.109375 0.25 -0.109375 0.5625q0 0.546875 0.34375 0.875q0.34375 0.328125 0.96875 0.328125q0.515625 0 0.9375 -0.25q0.4375 -0.265625 0.921875 -0.796875l0 -1.5zm9.1484375 -3.84375q0 0.03125 -0.015625 0.078125q0 0.03125 -0.015625 0.078125q0 0.03125 -0.015625 0.078125q0 0.046875 -0.015625 0.09375l-2.40625 6.6875q-0.03125 0.078125 -0.078125 0.140625q-0.046875 0.046875 -0.15625 0.09375q-0.09375 0.03125 -0.25 0.03125q-0.15625 0.015625 -0.390625 0.015625q-0.234375 0 -0.390625 -0.015625q-0.15625 -0.015625 -0.265625 -0.046875q-0.09375 -0.03125 -0.15625 -0.078125q-0.046875 -0.0625 -0.078125 -0.140625l-2.390625 -6.6875q-0.03125 -0.09375 -0.046875 -0.15625q-0.015625 -0.078125 -0.03125 -0.109375q0 -0.03125 0 -0.0625q0 -0.0625 0.03125 -0.109375q0.03125 -0.046875 0.109375 -0.0625q0.078125 -0.03125 0.1875 -0.03125q0.125 -0.015625 0.3125 -0.015625q0.21875 0 0.359375 0.015625q0.140625 0 0.203125 0.03125q0.078125 0.03125 0.109375 0.078125q0.046875 0.046875 0.078125 0.125l1.984375 5.796875l0.03125 0.09375l0.015625 -0.09375l1.96875 -5.796875q0.015625 -0.078125 0.046875 -0.125q0.046875 -0.046875 0.109375 -0.078125q0.078125 -0.03125 0.203125 -0.03125q0.140625 -0.015625 0.34375 -0.015625q0.1875 0 0.296875 0.015625q0.125 0 0.1875 0.03125q0.0625 0.03125 0.09375 0.078125q0.03125 0.03125 0.03125 0.09375zm7.3046837 3.234375q0 0.296875 -0.15625 0.4375q-0.15625 0.125 -0.3437462 0.125l-4.609375 0q0 0.578125 0.109375 1.046875q0.125 0.46875 0.390625 0.8125q0.28125 0.328125 0.71875 0.515625q0.4375 0.171875 1.0625 0.171875q0.5 0 0.890625 -0.078125q0.390625 -0.078125 0.671875 -0.171875q0.296875 -0.109375 0.46875 -0.1875q0.1875 -0.09375 0.28125 -0.09375q0.062496185 0 0.093746185 0.03125q0.046875 0.03125 0.0625 0.09375q0.03125 0.046875 0.046875 0.140625q0.015625 0.09375 0.015625 0.234375q0 0.109375 -0.015625 0.1875q0 0.0625 -0.015625 0.125q-0.015625 0.0625 -0.046875 0.109375q-0.015625 0.046875 -0.0625 0.09375q-0.046875 0.03125 -0.2656212 0.140625q-0.203125 0.09375 -0.546875 0.1875q-0.328125 0.09375 -0.765625 0.171875q-0.4375 0.078125 -0.9375 0.078125q-0.875 0 -1.53125 -0.25q-0.640625 -0.25 -1.09375 -0.71875q-0.4375 -0.484375 -0.671875 -1.203125q-0.21875 -0.71875 -0.21875 -1.671875q0 -0.90625 0.234375 -1.625q0.234375 -0.71875 0.671875 -1.21875q0.4375 -0.515625 1.0625 -0.78125q0.625 -0.265625 1.40625 -0.265625q0.828125 0 1.40625 0.265625q0.578125 0.265625 0.953125 0.71875q0.3749962 0.4375 0.5468712 1.046875q0.1875 0.609375 0.1875 1.296875l0 0.234375zm-1.2968712 -0.390625q0.015625 -1.015625 -0.453125 -1.59375q-0.46875 -0.578125 -1.40625 -0.578125q-0.46875 0 -0.828125 0.1875q-0.359375 0.171875 -0.609375 0.46875q-0.234375 0.296875 -0.375 0.703125q-0.125 0.390625 -0.140625 0.8125l3.8125 0zm9.492184 -0.078125q0 0.125 -0.015625 0.234375q-0.015625 0.109375 -0.046875 0.1875q-0.015625 0.078125 -0.0625 0.125q-0.03125 0.03125 -0.078125 0.0625l-6.125 3.09375q-0.09375 0.03125 -0.15625 0.046875q-0.0625 0 -0.09375 -0.046875q-0.03125 -0.0625 -0.046875 -0.171875q-0.015625 -0.125 -0.015625 -0.296875q0 -0.21875 0 -0.34375q0.015625 -0.140625 0.03125 -0.21875q0.03125 -0.09375 0.078125 -0.140625q0.0625 -0.046875 0.15625 -0.078125l5.03125 -2.484375l-5.0 -2.40625q-0.109375 -0.046875 -0.171875 -0.09375q-0.046875 -0.046875 -0.078125 -0.125q-0.03125 -0.09375 -0.046875 -0.21875q0 -0.140625 0 -0.375q0 -0.203125 0.015625 -0.3125q0.015625 -0.109375 0.046875 -0.15625q0.03125 -0.0625 0.09375 -0.046875q0.0625 0 0.15625 0.046875l6.15625 3.109375q0.078125 0.03125 0.125 0.1875q0.046875 0.15625 0.046875 0.421875z" fill-rule="nonzero"/><path fill="#666666" d="m49.88281 57.88026q0 0.484375 -0.125 0.890625q-0.125 0.390625 -0.34375 0.71875q-0.21875 0.3125 -0.53125 0.5625q-0.296875 0.234375 -0.6875 0.40625q-0.390625 0.15625 -0.828125 0.25q-0.4375 0.078125 -1.015625 0.078125l-2.640625 0q-0.171875 0 -0.34375 -0.125q-0.15625 -0.125 -0.15625 -0.421875l0 -9.015625q0 -0.3125 0.15625 -0.421875q0.171875 -0.125 0.34375 -0.125l2.296875 0q0.90625 0 1.484375 0.171875q0.578125 0.171875 0.96875 0.5q0.390625 0.328125 0.578125 0.8125q0.203125 0.46875 0.203125 1.0625q0 0.359375 -0.09375 0.6875q-0.078125 0.328125 -0.25 0.609375q-0.171875 0.28125 -0.421875 0.5q-0.25 0.21875 -0.578125 0.359375q0.40625 0.078125 0.765625 0.28125q0.359375 0.203125 0.625 0.53125q0.28125 0.3125 0.4375 0.75q0.15625 0.421875 0.15625 0.9375zm-2.03125 -4.515625q0 -0.375 -0.109375 -0.671875q-0.09375 -0.296875 -0.3125 -0.5q-0.21875 -0.203125 -0.578125 -0.3125q-0.34375 -0.109375 -0.921875 -0.109375l-1.390625 0l0 3.265625l1.53125 0q0.53125 0 0.84375 -0.125q0.328125 -0.140625 0.53125 -0.375q0.21875 -0.234375 0.3125 -0.53125q0.09375 -0.3125 0.09375 -0.640625zm0.609375 4.59375q0 -0.453125 -0.140625 -0.796875q-0.140625 -0.34375 -0.421875 -0.578125q-0.28125 -0.234375 -0.703125 -0.34375q-0.40625 -0.125 -1.046875 -0.125l-1.609375 0l0 3.5625l1.953125 0q0.46875 0 0.8125 -0.109375q0.34375 -0.109375 0.59375 -0.328125q0.265625 -0.21875 0.40625 -0.53125q0.15625 -0.328125 0.15625 -0.75zm6.359375 2.828125l-0.9375 2.59375q-0.046875 0.125 -0.25 0.1875q-0.1875 0.0625 -0.578125 0.0625q-0.203125 0 -0.328125 -0.015625q-0.125 -0.015625 -0.1875 -0.0625q-0.0625 -0.046875 -0.078125 -0.125q0 -0.078125 0.046875 -0.1875l0.96875 -2.453125q-0.078125 -0.03125 -0.140625 -0.09375q-0.0625 -0.078125 -0.078125 -0.15625l-2.515625 -6.71875q-0.0625 -0.171875 -0.0625 -0.265625q0 -0.09375 0.0625 -0.140625q0.0625 -0.0625 0.203125 -0.078125q0.140625 -0.015625 0.375 -0.015625q0.234375 0 0.359375 0.015625q0.140625 0 0.21875 0.03125q0.078125 0.03125 0.109375 0.09375q0.046875 0.0625 0.078125 0.15625l2.015625 5.640625l0.015625 0l1.9375 -5.671875q0.046875 -0.140625 0.109375 -0.1875q0.078125 -0.046875 0.203125 -0.0625q0.140625 -0.015625 0.390625 -0.015625q0.21875 0 0.359375 0.015625q0.140625 0.015625 0.203125 0.078125q0.0625 0.046875 0.0625 0.140625q0 0.09375 -0.046875 0.234375l-2.515625 7.0zm9.843746 -4.015625q0 0.296875 -0.15625 0.4375q-0.15625 0.125 -0.34375 0.125l-4.609371 0q0 0.578125 0.109375 1.046875q0.125 0.46875 0.390625 0.8125q0.28125 0.328125 0.71875 0.515625q0.4375 0.171875 1.0625 0.171875q0.5 0 0.890625 -0.078125q0.390625 -0.078125 0.671875 -0.171875q0.296875 -0.109375 0.46875 -0.1875q0.18749619 -0.09375 0.2812462 -0.09375q0.0625 0 0.09375 0.03125q0.046875 0.03125 0.0625 0.09375q0.03125 0.046875 0.046875 0.140625q0.015625 0.09375 0.015625 0.234375q0 0.109375 -0.015625 0.1875q0 0.0625 -0.015625 0.125q-0.015625 0.0625 -0.046875 0.109375q-0.015625 0.046875 -0.0625 0.09375q-0.046875 0.03125 -0.2656212 0.140625q-0.203125 0.09375 -0.546875 0.1875q-0.328125 0.09375 -0.765625 0.171875q-0.4375 0.078125 -0.9375 0.078125q-0.875 0 -1.53125 -0.25q-0.640625 -0.25 -1.09375 -0.71875q-0.4375 -0.484375 -0.671875 -1.203125q-0.21875 -0.71875 -0.21875 -1.671875q0 -0.90625 0.234375 -1.625q0.234375 -0.71875 0.671875 -1.21875q0.4375 -0.515625 1.0625 -0.78125q0.625 -0.265625 1.40625 -0.265625q0.828125 0 1.40625 0.265625q0.578125 0.265625 0.953125 0.71875q0.3749962 0.4375 0.5468712 1.046875q0.1875 0.609375 0.1875 1.296875l0 0.234375zm-1.2968712 -0.390625q0.015625 -1.015625 -0.453125 -1.59375q-0.46875 -0.578125 -1.40625 -0.578125q-0.46875 0 -0.828125 0.1875q-0.359375 0.171875 -0.609375 0.46875q-0.234375 0.296875 -0.375 0.703125q-0.125 0.390625 -0.140625 0.8125l3.8125 0zm5.5390587 1.484375q0 0.0625 -0.03125 0.109375q-0.03125 0.046875 -0.109375 0.078125q-0.0625 0.03125 -0.171875 0.046875q-0.109375 0.015625 -0.265625 0.015625q-0.171875 0 -0.28125 -0.015625q-0.109375 -0.015625 -0.1875 -0.046875q-0.0625 -0.03125 -0.09375 -0.078125q-0.015625 -0.046875 -0.015625 -0.109375l-0.140625 -7.453125q0 -0.09375 0.03125 -0.15625q0.03125 -0.078125 0.109375 -0.125q0.078125 -0.046875 0.21875 -0.0625q0.140625 -0.015625 0.359375 -0.015625q0.203125 0 0.34375 0.03125q0.140625 0.015625 0.21875 0.0625q0.078125 0.046875 0.109375 0.109375q0.03125 0.0625 0.03125 0.15625l-0.125 7.453125zm0.234375 2.109375q0 0.25 -0.03125 0.421875q-0.03125 0.171875 -0.140625 0.28125q-0.09375 0.09375 -0.25 0.140625q-0.15625 0.046875 -0.390625 0.046875q-0.25 0 -0.40625 -0.046875q-0.15625 -0.046875 -0.25 -0.140625q-0.09375 -0.109375 -0.140625 -0.28125q-0.03125 -0.171875 -0.03125 -0.421875q0 -0.265625 0.03125 -0.4375q0.046875 -0.171875 0.140625 -0.265625q0.09375 -0.109375 0.25 -0.140625q0.15625 -0.046875 0.40625 -0.046875q0.234375 0 0.390625 0.046875q0.15625 0.03125 0.25 0.140625q0.109375 0.09375 0.140625 0.265625q0.03125 0.171875 0.03125 0.4375z" fill-rule="nonzero"/><path fill="#666666" d="m27.351557 78.52088q0 0.1875 -0.015625 0.3125q-0.015625 0.125 -0.0625 0.171875q-0.03125 0.046875 -0.09375 0.046875q-0.0625 -0.015625 -0.140625 -0.0625l-6.15625 -3.109375q-0.078125 -0.03125 -0.125 -0.171875q-0.046875 -0.15625 -0.046875 -0.4375q0 -0.125 0 -0.234375q0.015625 -0.109375 0.046875 -0.171875q0.03125 -0.078125 0.0625 -0.125q0.03125 -0.0625 0.078125 -0.078125l6.140625 -3.09375q0.171875 -0.078125 0.234375 0.015625q0.078125 0.09375 0.078125 0.453125q0 0.234375 -0.015625 0.375q-0.015625 0.125 -0.046875 0.203125q-0.015625 0.078125 -0.078125 0.125q-0.046875 0.046875 -0.140625 0.09375l-5.03125 2.453125l5.0 2.421875q0.109375 0.0625 0.15625 0.109375q0.0625 0.03125 0.09375 0.125q0.03125 0.078125 0.046875 0.21875q0.015625 0.125 0.015625 0.359375zm7.375002 0.671875q0 0.15625 -0.015625 0.265625q-0.015625 0.109375 -0.0625 0.1875q-0.03125 0.0625 -0.078125 0.109375q-0.046875 0.03125 -0.125 0.03125l-4.468752 0q-0.171875 0 -0.34375 -0.125q-0.15625 -0.125 -0.15625 -0.421875l0 -9.359375q0 -0.0625 0.03125 -0.109375q0.03125 -0.046875 0.109375 -0.078125q0.078125 -0.03125 0.203125 -0.046875q0.140625 -0.015625 0.328125 -0.015625q0.203125 0 0.328125 0.015625q0.125 0.015625 0.203125 0.046875q0.078125 0.03125 0.109375 0.078125q0.03125 0.046875 0.03125 0.109375l0 8.734375l3.625002 0q0.078125 0 0.125 0.046875q0.046875 0.03125 0.078125 0.09375q0.046875 0.0625 0.0625 0.171875q0.015625 0.109375 0.015625 0.265625zm7.3359375 -3.421875q0 0.296875 -0.15625 0.4375q-0.15625 0.125 -0.34375 0.125l-4.609375 0q0 0.578125 0.109375 1.046875q0.125 0.46875 0.390625 0.8125q0.28125 0.328125 0.71875 0.515625q0.4375 0.171875 1.0625 0.171875q0.5 0 0.890625 -0.078125q0.390625 -0.078125 0.671875 -0.171875q0.296875 -0.109375 0.46875 -0.1875q0.1875 -0.09375 0.28125 -0.09375q0.0625 0 0.09375 0.03125q0.046875 0.03125 0.0625 0.09375q0.03125 0.046875 0.046875 0.140625q0.015625 0.09375 0.015625 0.234375q0 0.109375 -0.015625 0.1875q0 0.0625 -0.015625 0.125q-0.015625 0.0625 -0.046875 0.109375q-0.015625 0.046875 -0.0625 0.09375q-0.046875 0.03125 -0.265625 0.140625q-0.203125 0.09375 -0.546875 0.1875q-0.328125 0.09375 -0.765625 0.171875q-0.4375 0.078125 -0.9375 0.078125q-0.875 0 -1.53125 -0.25q-0.640625 -0.25 -1.09375 -0.71875q-0.4375 -0.484375 -0.671875 -1.203125q-0.21875 -0.71875 -0.21875 -1.671875q0 -0.90625 0.234375 -1.625q0.234375 -0.71875 0.671875 -1.21875q0.4375 -0.515625 1.0625 -0.78125q0.625 -0.265625 1.40625 -0.265625q0.828125 0 1.40625 0.265625q0.578125 0.265625 0.953125 0.71875q0.375 0.4375 0.546875 1.046875q0.1875 0.609375 0.1875 1.296875l0 0.234375zm-1.296875 -0.390625q0.015625 -1.015625 -0.453125 -1.59375q-0.46875 -0.578125 -1.40625 -0.578125q-0.46875 0 -0.828125 0.1875q-0.359375 0.171875 -0.609375 0.46875q-0.234375 0.296875 -0.375 0.703125q-0.125 0.390625 -0.140625 0.8125l3.8125 0zm8.5546875 4.21875q0 0.09375 -0.0625 0.140625q-0.0625 0.046875 -0.171875 0.0625q-0.109375 0.03125 -0.328125 0.03125q-0.203125 0 -0.328125 -0.03125q-0.109375 -0.015625 -0.171875 -0.0625q-0.046875 -0.046875 -0.046875 -0.140625l0 -0.703125q-0.46875 0.484375 -1.03125 0.765625q-0.5625 0.28125 -1.203125 0.28125q-0.546875 0 -1.0 -0.15625q-0.453125 -0.140625 -0.765625 -0.40625q-0.3125 -0.28125 -0.5 -0.671875q-0.171875 -0.40625 -0.171875 -0.921875q0 -0.59375 0.234375 -1.03125q0.25 -0.4375 0.703125 -0.71875q0.453125 -0.296875 1.109375 -0.4375q0.65625 -0.140625 1.484375 -0.140625l0.96875 0l0 -0.546875q0 -0.40625 -0.09375 -0.71875q-0.078125 -0.3125 -0.28125 -0.515625q-0.1875 -0.21875 -0.5 -0.3125q-0.296875 -0.109375 -0.734375 -0.109375q-0.484375 0 -0.859375 0.109375q-0.375 0.109375 -0.671875 0.25q-0.28125 0.140625 -0.46875 0.25q-0.1875 0.109375 -0.28125 0.109375q-0.0625 0 -0.109375 -0.03125q-0.046875 -0.03125 -0.09375 -0.09375q-0.03125 -0.0625 -0.046875 -0.15625q-0.015625 -0.09375 -0.015625 -0.21875q0 -0.1875 0.03125 -0.296875q0.03125 -0.125 0.125 -0.21875q0.109375 -0.109375 0.359375 -0.234375q0.265625 -0.140625 0.59375 -0.25q0.34375 -0.125 0.734375 -0.1875q0.40625 -0.078125 0.8125 -0.078125q0.765625 0 1.296875 0.171875q0.53125 0.171875 0.859375 0.5q0.328125 0.328125 0.46875 0.828125q0.15625 0.484375 0.15625 1.140625l0 4.75zm-1.28125 -3.21875l-1.109375 0q-0.53125 0 -0.921875 0.09375q-0.390625 0.09375 -0.65625 0.265625q-0.25 0.171875 -0.375 0.421875q-0.109375 0.25 -0.109375 0.5625q0 0.546875 0.34375 0.875q0.34375 0.328125 0.96875 0.328125q0.515625 0 0.9375 -0.25q0.4375 -0.265625 0.921875 -0.796875l0 -1.5zm9.1484375 -3.84375q0 0.03125 -0.015625 0.078125q0 0.03125 -0.015625 0.078125q0 0.03125 -0.015625 0.078125q0 0.046875 -0.015625 0.09375l-2.40625 6.6875q-0.03125 0.078125 -0.078125 0.140625q-0.046875 0.046875 -0.15625 0.09375q-0.09375 0.03125 -0.25 0.03125q-0.15625 0.015625 -0.390625 0.015625q-0.234375 0 -0.390625 -0.015625q-0.15625 -0.015625 -0.265625 -0.046875q-0.09375 -0.03125 -0.15625 -0.078125q-0.046875 -0.0625 -0.078125 -0.140625l-2.390625 -6.6875q-0.03125 -0.09375 -0.046875 -0.15625q-0.015625 -0.078125 -0.03125 -0.109375q0 -0.03125 0 -0.0625q0 -0.0625 0.03125 -0.109375q0.03125 -0.046875 0.109375 -0.0625q0.078125 -0.03125 0.1875 -0.03125q0.125 -0.015625 0.3125 -0.015625q0.21875 0 0.359375 0.015625q0.140625 0 0.203125 0.03125q0.078125 0.03125 0.109375 0.078125q0.046875 0.046875 0.078125 0.125l1.984375 5.796875l0.03125 0.09375l0.015625 -0.09375l1.96875 -5.796875q0.015625 -0.078125 0.046875 -0.125q0.046875 -0.046875 0.109375 -0.078125q0.078125 -0.03125 0.203125 -0.03125q0.140625 -0.015625 0.34375 -0.015625q0.1875 0 0.296875 0.015625q0.125 0 0.1875 0.03125q0.0625 0.03125 0.09375 0.078125q0.03125 0.03125 0.03125 0.09375zm7.3046837 3.234375q0 0.296875 -0.15625 0.4375q-0.15625 0.125 -0.3437462 0.125l-4.609375 0q0 0.578125 0.109375 1.046875q0.125 0.46875 0.390625 0.8125q0.28125 0.328125 0.71875 0.515625q0.4375 0.171875 1.0625 0.171875q0.5 0 0.890625 -0.078125q0.390625 -0.078125 0.671875 -0.171875q0.296875 -0.109375 0.46875 -0.1875q0.1875 -0.09375 0.28125 -0.09375q0.062496185 0 0.093746185 0.03125q0.046875 0.03125 0.0625 0.09375q0.03125 0.046875 0.046875 0.140625q0.015625 0.09375 0.015625 0.234375q0 0.109375 -0.015625 0.1875q0 0.0625 -0.015625 0.125q-0.015625 0.0625 -0.046875 0.109375q-0.015625 0.046875 -0.0625 0.09375q-0.046875 0.03125 -0.2656212 0.140625q-0.203125 0.09375 -0.546875 0.1875q-0.328125 0.09375 -0.765625 0.171875q-0.4375 0.078125 -0.9375 0.078125q-0.875 0 -1.53125 -0.25q-0.640625 -0.25 -1.09375 -0.71875q-0.4375 -0.484375 -0.671875 -1.203125q-0.21875 -0.71875 -0.21875 -1.671875q0 -0.90625 0.234375 -1.625q0.234375 -0.71875 0.671875 -1.21875q0.4375 -0.515625 1.0625 -0.78125q0.625 -0.265625 1.40625 -0.265625q0.828125 0 1.40625 0.265625q0.578125 0.265625 0.953125 0.71875q0.3749962 0.4375 0.5468712 1.046875q0.1875 0.609375 0.1875 1.296875l0 0.234375zm-1.2968712 -0.390625q0.015625 -1.015625 -0.453125 -1.59375q-0.46875 -0.578125 -1.40625 -0.578125q-0.46875 0 -0.828125 0.1875q-0.359375 0.171875 -0.609375 0.46875q-0.234375 0.296875 -0.375 0.703125q-0.125 0.390625 -0.140625 0.8125l3.8125 0zm3.3671837 6.296875q-0.03125 0.09375 -0.078125 0.15625q-0.046875 0.0625 -0.125 0.09375q-0.078125 0.03125 -0.203125 0.046875q-0.109375 0.015625 -0.265625 0.015625q-0.203125 0 -0.328125 -0.03125q-0.125 -0.03125 -0.203125 -0.078125q-0.0625 -0.046875 -0.078125 -0.125q-0.015625 -0.078125 0.03125 -0.171875l4.71875 -12.96875q0.03125 -0.109375 0.078125 -0.15625q0.0625 -0.0625 0.125 -0.09375q0.078125 -0.046875 0.1875 -0.046875q0.125 -0.015625 0.296875 -0.015625q0.1875 0 0.3125 0.03125q0.125 0.015625 0.1875 0.0625q0.078125 0.046875 0.09375 0.125q0.015625 0.078125 -0.015625 0.1875l-4.734375 12.96875zm12.3046875 -6.375q0 0.125 -0.015625 0.234375q-0.015625 0.109375 -0.046875 0.1875q-0.015625 0.078125 -0.0625 0.125q-0.03125 0.03125 -0.078125 0.0625l-6.125 3.09375q-0.09375 0.03125 -0.15625 0.046875q-0.0625 0 -0.09375 -0.046875q-0.03125 -0.0625 -0.046875 -0.171875q-0.015625 -0.125 -0.015625 -0.296875q0 -0.21875 0 -0.34375q0.015625 -0.140625 0.03125 -0.21875q0.03125 -0.09375 0.078125 -0.140625q0.0625 -0.046875 0.15625 -0.078125l5.03125 -2.484375l-5.0 -2.40625q-0.109375 -0.046875 -0.171875 -0.09375q-0.046875 -0.046875 -0.078125 -0.125q-0.03125 -0.09375 -0.046875 -0.21875q0 -0.140625 0 -0.375q0 -0.203125 0.015625 -0.3125q0.015625 -0.109375 0.046875 -0.15625q0.03125 -0.0625 0.09375 -0.046875q0.0625 0 0.15625 0.046875l6.15625 3.109375q0.078125 0.03125 0.125 0.1875q0.046875 0.15625 0.046875 0.421875z" fill-rule="nonzero"/></g></svg>