<svg version="1.1" viewBox="0.0 0.0 960.0 720.0" fill="none" stroke="none" stroke-linecap="square" stroke-miterlimit="10" xmlns:xlink="http://www.w3.org/1999/xlink" xmlns="http://www.w3.org/2000/svg"><clipPath id="p.0"><path d="m0 0l960.0 0l0 720.0l-960.0 0l0 -720.0z" clip-rule="nonzero"/></clipPath><g clip-path="url(#p.0)"><path fill="#000000" fill-opacity="0.0" d="m0 0l960.0 0l0 720.0l-960.0 0z" fill-rule="evenodd"/><path fill="#000000" fill-opacity="0.0" d="m279.9344 242.83464l375.27557 0l0 234.3307l-375.27557 0z" fill-rule="evenodd"/><path fill="#000000" d="m297.16876 276.40463q1.9375 0 3.359375 -0.75q1.421875 -0.765625 2.078125 -1.6875l-1.71875 -1.859375q-0.59375 0.765625 -1.546875 1.15625q-0.9375 0.375 -1.953125 0.375q-0.71875 0 -1.328125 -0.21875q-0.609375 -0.21875 -1.078125 -0.625q-0.453125 -0.40625 -0.734375 -0.890625q-0.265625 -0.484375 -0.4375 -1.296875l0 -0.03125l9.078125 0l0 -1.453125q0 -1.484375 -0.40625 -2.6875q-0.40625 -1.21875 -1.1875 -2.09375q-0.796875 -0.859375 -1.9375 -1.328125q-1.125 -0.484375 -2.5625 -0.484375q-1.40625 0 -2.59375 0.515625q-1.1875 0.5 -2.046875 1.40625q-0.875 0.921875 -1.359375 2.1875q-0.46875 1.265625 -0.46875 2.796875l0 0.5q0 1.34375 0.484375 2.53125q0.484375 1.171875 1.390625 2.046875q0.90625 0.875 2.15625 1.390625q1.265625 0.5 2.8125 0.5zm-0.40625 -11.09375q0.65625 0 1.15625 0.203125q0.5 0.203125 0.84375 0.546875q0.34375 0.359375 0.546875 0.84375q0.203125 0.484375 0.203125 1.03125l0 0.265625l-5.640625 0q0.125 -0.65625 0.359375 -1.1875q0.25 -0.53125 0.625 -0.90625q0.359375 -0.390625 0.84375 -0.59375q0.484375 -0.203125 1.0625 -0.203125zm15.230591 1.640625l-2.890625 -4.171875l-3.6875 0l4.46875 6.5625l-4.65625 6.8125l3.734375 0l3.046875 -4.375l3.078125 4.375l3.71875 0l-4.65625 -6.8125l4.484375 -6.5625l-3.6875 0l-2.953125 4.171875zm9.136871 14.34375l3.4375 0l0 -6.296875q0.234375 0.25 0.484375 0.46875q0.265625 0.203125 0.546875 0.375q0.484375 0.28125 1.046875 0.421875q0.5625 0.140625 1.234375 0.140625q1.265625 0 2.234375 -0.515625q0.984375 -0.53125 1.640625 -1.4375q0.65625 -0.90625 1.0 -2.15625q0.34375 -1.25 0.34375 -2.703125l0 -0.265625q0 -1.515625 -0.34375 -2.765625q-0.34375 -1.265625 -1.0 -2.171875q-0.671875 -0.890625 -1.65625 -1.375q-0.96875 -0.484375 -2.25 -0.484375q-0.609375 0 -1.15625 0.125q-0.53125 0.125 -0.984375 0.359375q-0.359375 0.203125 -0.6875 0.46875q-0.3125 0.265625 -0.59375 0.59375l-0.125 -1.296875l-3.171875 0l0 18.515625zm8.53125 -11.96875l0 0.265625q0 0.828125 -0.15625 1.5625q-0.140625 0.734375 -0.46875 1.296875q-0.3125 0.546875 -0.828125 0.875q-0.515625 0.3125 -1.25 0.3125q-0.453125 0 -0.828125 -0.09375q-0.359375 -0.09375 -0.65625 -0.265625q-0.296875 -0.1875 -0.53125 -0.4375q-0.21875 -0.265625 -0.375 -0.578125l0 -5.59375q0.171875 -0.34375 0.40625 -0.59375q0.25 -0.265625 0.5625 -0.453125q0.296875 -0.140625 0.640625 -0.21875q0.34375 -0.078125 0.765625 -0.078125q0.71875 0 1.234375 0.3125q0.515625 0.296875 0.859375 0.828125q0.3125 0.546875 0.46875 1.28125q0.15625 0.734375 0.15625 1.578125zm6.152466 0.015625l0 0.265625q0 1.46875 0.40625 2.71875q0.421875 1.234375 1.25 2.140625q0.796875 0.921875 1.96875 1.4375q1.1875 0.515625 2.703125 0.515625q1.5 0 2.671875 -0.515625q1.171875 -0.515625 1.96875 -1.4375q0.8125 -0.90625 1.234375 -2.140625q0.421875 -1.25 0.421875 -2.71875l0 -0.265625q0 -1.46875 -0.421875 -2.703125q-0.421875 -1.25 -1.234375 -2.15625q-0.8125 -0.921875 -1.984375 -1.4375q-1.171875 -0.515625 -2.6875 -0.515625q-1.5 0 -2.671875 0.515625q-1.171875 0.515625 -1.96875 1.4375q-0.828125 0.90625 -1.25 2.15625q-0.40625 1.234375 -0.40625 2.703125zm3.4375 0.265625l0 -0.265625q0 -0.8125 0.15625 -1.546875q0.15625 -0.734375 0.5 -1.28125q0.34375 -0.5625 0.890625 -0.875q0.546875 -0.328125 1.3125 -0.328125q0.78125 0 1.328125 0.328125q0.546875 0.3125 0.890625 0.875q0.328125 0.546875 0.484375 1.28125q0.171875 0.734375 0.171875 1.546875l0 0.265625q0 0.828125 -0.171875 1.578125q-0.15625 0.734375 -0.484375 1.265625q-0.34375 0.5625 -0.890625 0.890625q-0.546875 0.3125 -1.296875 0.3125q-0.78125 0 -1.34375 -0.3125q-0.546875 -0.328125 -0.890625 -0.890625q-0.34375 -0.53125 -0.5 -1.265625q-0.15625 -0.75 -0.15625 -1.578125zm21.839996 -7.078125q-1.359375 0 -2.5 0.65625q-1.125 0.640625 -1.953125 1.78125l-0.015625 -0.296875l-0.140625 -1.890625l-3.203125 0l0 13.375l3.4375 0l0 -8.03125q0.234375 -0.578125 0.59375 -1.0q0.359375 -0.421875 0.875 -0.6875q0.421875 -0.234375 0.953125 -0.34375q0.53125 -0.125 1.203125 -0.125q0.640625 0 1.34375 0.078125q0.71875 0.078125 1.40625 0.234375l0.5 -3.421875q-0.40625 -0.125 -1.078125 -0.21875q-0.65625 -0.109375 -1.421875 -0.109375zm11.886841 -3.03125l-3.4375 0l0 3.28125l-3.046875 0l0 2.53125l3.046875 0l0 6.078125q0 1.328125 0.34375 2.28125q0.359375 0.9375 1.0 1.546875q0.625 0.609375 1.515625 0.90625q0.90625 0.296875 2.0 0.296875q0.578125 0 1.15625 -0.0625q0.59375 -0.0625 1.140625 -0.15625q0.546875 -0.09375 1.015625 -0.25q0.484375 -0.15625 0.84375 -0.359375l-0.328125 -2.375q-0.234375 0.0625 -0.5625 0.125q-0.328125 0.0625 -0.703125 0.109375q-0.375 0.0625 -0.796875 0.109375q-0.40625 0.03125 -0.8125 0.03125q-0.546875 0 -0.984375 -0.125q-0.4375 -0.125 -0.75 -0.421875q-0.296875 -0.28125 -0.46875 -0.765625q-0.171875 -0.484375 -0.171875 -1.21875l0 -5.75l5.0 0l0 -2.53125l-5.0 0l0 -3.28125zm23.742462 9.859375l0 0.265625q0 1.453125 0.359375 2.703125q0.359375 1.25 1.03125 2.140625q0.671875 0.90625 1.640625 1.421875q0.96875 0.515625 2.1875 0.515625q1.125 0 1.984375 -0.4375q0.859375 -0.4375 1.484375 -1.203125l0.171875 1.390625l3.109375 0l0 -19.0l-3.453125 0l0 6.8125q-0.625 -0.6875 -1.421875 -1.0625q-0.796875 -0.375 -1.84375 -0.375q-1.25 0 -2.21875 0.5q-0.96875 0.484375 -1.65625 1.390625q-0.671875 0.90625 -1.03125 2.171875q-0.34375 1.25 -0.34375 2.765625zm3.4375 0.265625l0 -0.265625q0 -0.828125 0.140625 -1.5625q0.15625 -0.75 0.46875 -1.296875q0.328125 -0.546875 0.84375 -0.859375q0.515625 -0.3125 1.234375 -0.3125q0.875 0 1.453125 0.375q0.59375 0.375 0.9375 1.046875l0 5.421875q-0.34375 0.671875 -0.9375 1.0625q-0.578125 0.375 -1.46875 0.375q-0.734375 0 -1.25 -0.3125q-0.5 -0.3125 -0.828125 -0.84375q-0.3125 -0.53125 -0.453125 -1.25q-0.140625 -0.734375 -0.140625 -1.578125zm18.605621 6.78125q1.9375 0 3.359375 -0.75q1.421875 -0.765625 2.078125 -1.6875l-1.71875 -1.859375q-0.59375 0.765625 -1.546875 1.15625q-0.9375 0.375 -1.953125 0.375q-0.71875 0 -1.328125 -0.21875q-0.609375 -0.21875 -1.078125 -0.625q-0.453125 -0.40625 -0.734375 -0.890625q-0.265625 -0.484375 -0.4375 -1.296875l0 -0.03125l9.078125 0l0 -1.453125q0 -1.484375 -0.40625 -2.6875q-0.40625 -1.21875 -1.1875 -2.09375q-0.796875 -0.859375 -1.9375 -1.328125q-1.125 -0.484375 -2.5625 -0.484375q-1.40625 0 -2.59375 0.515625q-1.1875 0.5 -2.046875 1.40625q-0.875 0.921875 -1.359375 2.1875q-0.46875 1.265625 -0.46875 2.796875l0 0.5q0 1.34375 0.484375 2.53125q0.484375 1.171875 1.390625 2.046875q0.90625 0.875 2.15625 1.390625q1.265625 0.5 2.8125 0.5zm-0.40625 -11.09375q0.65625 0 1.15625 0.203125q0.5 0.203125 0.84375 0.546875q0.34375 0.359375 0.546875 0.84375q0.203125 0.484375 0.203125 1.03125l0 0.265625l-5.640625 0q0.125 -0.65625 0.359375 -1.1875q0.25 -0.53125 0.625 -0.90625q0.359375 -0.390625 0.84375 -0.59375q0.484375 -0.203125 1.0625 -0.203125zm12.449341 10.84375l3.4375 0l0 -10.84375l4.828125 0l0 -2.53125l-4.828125 0l0 -0.734375q0 -0.59375 0.15625 -1.0625q0.15625 -0.46875 0.484375 -0.796875q0.359375 -0.375 0.953125 -0.578125q0.609375 -0.203125 1.484375 -0.203125q0.796875 0 1.390625 0.078125q0.59375 0.078125 1.0625 0.171875l0.21875 -2.6875q-0.421875 -0.078125 -0.8125 -0.140625q-0.375 -0.0625 -0.765625 -0.109375q-0.375 -0.046875 -0.78125 -0.078125q-0.40625 -0.03125 -0.84375 -0.03125q-1.359375 0 -2.484375 0.359375q-1.109375 0.34375 -1.890625 1.03125q-0.78125 0.6875 -1.203125 1.703125q-0.40625 1.015625 -0.40625 2.34375l0 0.734375l-3.515625 0l0 2.53125l3.515625 0l0 10.84375zm20.230621 0l3.484375 0l0 -0.203125q-0.265625 -0.515625 -0.40625 -1.21875q-0.125 -0.703125 -0.125 -1.78125l0 -5.734375q0 -1.171875 -0.4375 -2.046875q-0.4375 -0.890625 -1.203125 -1.46875q-0.765625 -0.578125 -1.8125 -0.875q-1.03125 -0.296875 -2.25 -0.296875q-1.34375 0 -2.390625 0.34375q-1.046875 0.328125 -1.765625 0.90625q-0.734375 0.59375 -1.109375 1.359375q-0.375 0.765625 -0.375 1.609375l3.4375 0q0 -0.34375 0.109375 -0.640625q0.109375 -0.296875 0.328125 -0.515625q0.25 -0.234375 0.640625 -0.359375q0.390625 -0.140625 0.9375 -0.140625q0.625 0 1.078125 0.15625q0.46875 0.15625 0.78125 0.4375q0.296875 0.28125 0.4375 0.65625q0.15625 0.375 0.15625 0.84375l0 0.796875l-1.921875 0q-1.484375 0 -2.625 0.265625q-1.140625 0.265625 -1.921875 0.765625q-0.875 0.5625 -1.3125 1.421875q-0.421875 0.859375 -0.421875 1.96875q0 0.875 0.34375 1.609375q0.34375 0.734375 0.96875 1.265625q0.609375 0.53125 1.46875 0.828125q0.875 0.296875 1.890625 0.296875q0.640625 0 1.171875 -0.125q0.546875 -0.109375 1.015625 -0.328125q0.4375 -0.1875 0.8125 -0.453125q0.375 -0.28125 0.65625 -0.59375q0.0625 0.359375 0.140625 0.6875q0.09375 0.3125 0.21875 0.5625zm-3.28125 -2.40625q-0.484375 0 -0.859375 -0.109375q-0.359375 -0.125 -0.59375 -0.328125q-0.25 -0.21875 -0.390625 -0.515625q-0.125 -0.296875 -0.125 -0.65625q0 -0.46875 0.171875 -0.84375q0.171875 -0.390625 0.53125 -0.6875q0.359375 -0.265625 0.921875 -0.421875q0.578125 -0.15625 1.375 -0.15625l1.765625 0l0 2.296875q-0.15625 0.265625 -0.421875 0.515625q-0.25 0.25 -0.609375 0.453125q-0.359375 0.203125 -0.8125 0.328125q-0.4375 0.125 -0.953125 0.125zm18.839966 2.40625l3.125 0l0 -13.375l-3.453125 0l0 9.375q-0.15625 0.328125 -0.390625 0.59375q-0.21875 0.25 -0.5 0.4375q-0.328125 0.203125 -0.78125 0.328125q-0.4375 0.109375 -0.96875 0.109375q-0.609375 0 -1.03125 -0.140625q-0.421875 -0.15625 -0.6875 -0.5q-0.25 -0.34375 -0.375 -0.890625q-0.109375 -0.5625 -0.109375 -1.375l0 -7.9375l-3.4375 0l0 7.90625q0 1.53125 0.328125 2.609375q0.34375 1.078125 0.96875 1.765625q0.609375 0.703125 1.46875 1.03125q0.875 0.328125 1.921875 0.328125q1.140625 0 2.09375 -0.5625q0.953125 -0.578125 1.640625 -1.578125l0.1875 1.875zm7.1993713 -19.0l0 2.8125l4.0 0l0 13.390625l-4.0 0l0 2.796875l11.3125 0l0 -2.796875l-3.84375 0l0 -16.203125l-7.46875 0zm20.777466 2.34375l-3.4375 0l0 3.28125l-3.046875 0l0 2.53125l3.046875 0l0 6.078125q0 1.328125 0.34375 2.28125q0.359375 0.9375 1.0 1.546875q0.625 0.609375 1.515625 0.90625q0.90625 0.296875 2.0 0.296875q0.578125 0 1.15625 -0.0625q0.59375 -0.0625 1.140625 -0.15625q0.546875 -0.09375 1.015625 -0.25q0.484375 -0.15625 0.84375 -0.359375l-0.328125 -2.375q-0.234375 0.0625 -0.5625 0.125q-0.328125 0.0625 -0.703125 0.109375q-0.375 0.0625 -0.796875 0.109375q-0.40625 0.03125 -0.8125 0.03125q-0.546875 0 -0.984375 -0.125q-0.4375 -0.125 -0.75 -0.421875q-0.296875 -0.28125 -0.46875 -0.765625q-0.171875 -0.484375 -0.171875 -1.21875l0 -5.75l5.0 0l0 -2.53125l-5.0 0l0 -3.28125zm26.617493 9.328125l0 0.28125q0 1.75 0.265625 3.296875q0.265625 1.53125 0.71875 2.828125q0.46875 1.3125 1.078125 2.375q0.609375 1.078125 1.296875 1.890625q0.671875 0.84375 1.390625 1.421875q0.734375 0.578125 1.40625 0.890625l0.671875 -1.859375q-0.484375 -0.375 -0.984375 -0.9375q-0.484375 -0.546875 -0.9375 -1.296875q-0.421875 -0.703125 -0.78125 -1.625q-0.359375 -0.921875 -0.640625 -2.015625q-0.1875 -0.78125 -0.359375 -2.09375q-0.171875 -1.3125 -0.171875 -2.859375l0 -0.3125q0 -1.578125 0.171875 -2.90625q0.171875 -1.34375 0.46875 -2.4375q0.3125 -1.140625 0.734375 -2.09375q0.4375 -0.96875 0.921875 -1.671875q0.390625 -0.546875 0.78125 -0.96875q0.40625 -0.421875 0.796875 -0.71875l-0.671875 -1.875q-0.671875 0.296875 -1.40625 0.875q-0.71875 0.578125 -1.390625 1.40625q-0.6875 0.828125 -1.296875 1.90625q-0.609375 1.078125 -1.078125 2.375q-0.453125 1.3125 -0.71875 2.859375q-0.265625 1.53125 -0.265625 3.265625zm21.82434 0.28125l0 -0.28125q0 -1.6875 -0.28125 -3.203125q-0.265625 -1.515625 -0.734375 -2.828125q-0.46875 -1.3125 -1.09375 -2.390625q-0.625 -1.078125 -1.328125 -1.9375q-0.703125 -0.84375 -1.453125 -1.4375q-0.734375 -0.59375 -1.4375 -0.890625l-0.65625 1.828125q0.375 0.296875 0.75 0.703125q0.375 0.390625 0.734375 0.90625q0.53125 0.765625 1.0 1.8125q0.484375 1.046875 0.8125 2.375q0.265625 1.0625 0.421875 2.328125q0.15625 1.25 0.15625 2.71875l0 0.3125q0 1.5 -0.15625 2.796875q-0.15625 1.28125 -0.421875 2.34375q-0.296875 1.15625 -0.703125 2.09375q-0.40625 0.953125 -0.890625 1.6875q-0.40625 0.625 -0.84375 1.09375q-0.421875 0.484375 -0.859375 0.8125l0.65625 1.859375q0.703125 -0.3125 1.4375 -0.90625q0.75 -0.59375 1.453125 -1.453125q0.703125 -0.828125 1.328125 -1.921875q0.625 -1.078125 1.09375 -2.390625q0.46875 -1.3125 0.734375 -2.828125q0.28125 -1.515625 0.28125 -3.203125zm33.164307 -1.828125l0 -2.8125l-11.703125 0l0 2.8125l11.703125 0zm0 5.34375l0 -2.8125l-11.703125 0l0 2.8125l11.703125 0zm3.5274658 1.765625l11.140625 -4.546875l0 -2.796875l-11.140625 -4.53125l0 3.328125l7.109375 2.328125l0.734375 0.25l-0.75 0.25l-7.09375 2.375l0 3.34375zm40.039307 6.21875l0.421875 -1.953125q-0.625 0.015625 -1.015625 -0.328125q-0.390625 -0.328125 -0.609375 -0.890625q-0.21875 -0.546875 -0.296875 -1.234375q-0.078125 -0.6875 -0.078125 -1.359375l0 -2.015625q0 -1.46875 -0.71875 -2.59375q-0.71875 -1.125 -2.25 -1.71875q1.515625 -0.59375 2.234375 -1.734375q0.734375 -1.140625 0.734375 -2.609375l0 -2.015625q0 -0.671875 0.03125 -1.359375q0.03125 -0.6875 0.21875 -1.234375q0.171875 -0.5625 0.578125 -0.890625q0.421875 -0.34375 1.171875 -0.328125l-0.421875 -1.9375q-1.203125 0 -2.078125 0.46875q-0.859375 0.453125 -1.390625 1.15625q-0.640625 0.828125 -0.9375 1.953125q-0.296875 1.125 -0.296875 2.171875l0 2.015625q0 1.671875 -0.765625 2.390625q-0.765625 0.71875 -2.328125 0.71875l0 2.46875q1.5625 0 2.328125 0.71875q0.765625 0.71875 0.765625 2.359375l0 2.015625q0 0.984375 0.265625 2.0q0.265625 1.015625 0.859375 1.875q0.5625 0.8125 1.453125 1.34375q0.90625 0.546875 2.125 0.546875z" fill-rule="nonzero"/><path fill="#000000" d="m348.29376 292.92966q-1.359375 0 -2.5 0.65625q-1.125 0.640625 -1.953125 1.78125l-0.015625 -0.296875l-0.140625 -1.890625l-3.203125 0l0 13.375l3.4375 0l0 -8.03125q0.234375 -0.578125 0.59375 -1.0q0.359375 -0.421875 0.875 -0.6875q0.421875 -0.234375 0.953125 -0.34375q0.53125 -0.125 1.203125 -0.125q0.640625 0 1.34375 0.078125q0.71875 0.078125 1.40625 0.234375l0.5 -3.421875q-0.40625 -0.125 -1.078125 -0.21875q-0.65625 -0.109375 -1.421875 -0.109375zm12.074341 13.875q1.9375 0 3.359375 -0.75q1.421875 -0.765625 2.078125 -1.6875l-1.71875 -1.859375q-0.59375 0.765625 -1.546875 1.15625q-0.9375 0.375 -1.953125 0.375q-0.71875 0 -1.328125 -0.21875q-0.609375 -0.21875 -1.078125 -0.625q-0.453125 -0.40625 -0.734375 -0.890625q-0.265625 -0.484375 -0.4375 -1.296875l0 -0.03125l9.078125 0l0 -1.453125q0 -1.484375 -0.40625 -2.6875q-0.40625 -1.21875 -1.1875 -2.09375q-0.796875 -0.859375 -1.9375 -1.328125q-1.125 -0.484375 -2.5625 -0.484375q-1.40625 0 -2.59375 0.515625q-1.1875 0.5 -2.046875 1.40625q-0.875 0.921875 -1.359375 2.1875q-0.46875 1.265625 -0.46875 2.796875l0 0.5q0 1.34375 0.484375 2.53125q0.484375 1.171875 1.390625 2.046875q0.90625 0.875 2.15625 1.390625q1.265625 0.5 2.8125 0.5zm-0.40625 -11.09375q0.65625 0 1.15625 0.203125q0.5 0.203125 0.84375 0.546875q0.34375 0.359375 0.546875 0.84375q0.203125 0.484375 0.203125 1.03125l0 0.265625l-5.640625 0q0.125 -0.65625 0.359375 -1.1875q0.25 -0.53125 0.625 -0.90625q0.359375 -0.390625 0.84375 -0.59375q0.484375 -0.203125 1.0625 -0.203125zm15.418121 -5.8125l-3.4375 0l0 3.28125l-3.046875 0l0 2.53125l3.046875 0l0 6.078125q0 1.328125 0.34375 2.28125q0.359375 0.9375 1.0 1.546875q0.625 0.609375 1.515625 0.90625q0.90625 0.296875 2.0 0.296875q0.578125 0 1.15625 -0.0625q0.59375 -0.0625 1.140625 -0.15625q0.546875 -0.09375 1.015625 -0.25q0.484375 -0.15625 0.84375 -0.359375l-0.328125 -2.375q-0.234375 0.0625 -0.5625 0.125q-0.328125 0.0625 -0.703125 0.109375q-0.375 0.0625 -0.796875 0.109375q-0.40625 0.03125 -0.8125 0.03125q-0.546875 0 -0.984375 -0.125q-0.4375 -0.125 -0.75 -0.421875q-0.296875 -0.28125 -0.46875 -0.765625q-0.171875 -0.484375 -0.171875 -1.21875l0 -5.75l5.0 0l0 -2.53125l-5.0 0l0 -3.28125zm17.621216 16.65625l3.125 0l0 -13.375l-3.453125 0l0 9.375q-0.15625 0.328125 -0.390625 0.59375q-0.21875 0.25 -0.5 0.4375q-0.328125 0.203125 -0.78125 0.328125q-0.4375 0.109375 -0.96875 0.109375q-0.609375 0 -1.03125 -0.140625q-0.421875 -0.15625 -0.6875 -0.5q-0.25 -0.34375 -0.375 -0.890625q-0.109375 -0.5625 -0.109375 -1.375l0 -7.9375l-3.4375 0l0 7.90625q0 1.53125 0.328125 2.609375q0.34375 1.078125 0.96875 1.765625q0.609375 0.703125 1.46875 1.03125q0.875 0.328125 1.921875 0.328125q1.140625 0 2.09375 -0.5625q0.953125 -0.578125 1.640625 -1.578125l0.1875 1.875zm16.089996 -13.625q-1.359375 0 -2.5 0.65625q-1.125 0.640625 -1.953125 1.78125l-0.015625 -0.296875l-0.140625 -1.890625l-3.203125 0l0 13.375l3.4375 0l0 -8.03125q0.234375 -0.578125 0.59375 -1.0q0.359375 -0.421875 0.875 -0.6875q0.421875 -0.234375 0.953125 -0.34375q0.53125 -0.125 1.203125 -0.125q0.640625 0 1.34375 0.078125q0.71875 0.078125 1.40625 0.234375l0.5 -3.421875q-0.40625 -0.125 -1.078125 -0.21875q-0.65625 -0.109375 -1.421875 -0.109375zm5.589966 13.625l3.4375 0l0 -9.515625q0.1875 -0.265625 0.390625 -0.484375q0.203125 -0.234375 0.46875 -0.390625q0.328125 -0.21875 0.734375 -0.328125q0.421875 -0.109375 0.90625 -0.109375q0.59375 0 1.0625 0.125q0.46875 0.109375 0.8125 0.40625q0.328125 0.296875 0.5 0.8125q0.1875 0.5 0.1875 1.296875l0 8.1875l3.4375 0l0 -8.234375q0 -1.46875 -0.34375 -2.484375q-0.328125 -1.015625 -0.9375 -1.671875q-0.625 -0.640625 -1.46875 -0.9375q-0.828125 -0.296875 -1.84375 -0.296875q-0.796875 0 -1.5 0.21875q-0.703125 0.21875 -1.296875 0.640625q-0.34375 0.25 -0.65625 0.5625q-0.3125 0.3125 -0.5625 0.671875l-0.21875 -1.84375l-3.109375 0l0 13.375zm32.914337 -7.328125l0 0.28125q0 1.75 0.265625 3.296875q0.265625 1.53125 0.71875 2.828125q0.46875 1.3125 1.078125 2.375q0.609375 1.078125 1.296875 1.890625q0.671875 0.84375 1.390625 1.421875q0.734375 0.578125 1.40625 0.890625l0.671875 -1.859375q-0.484375 -0.375 -0.984375 -0.9375q-0.484375 -0.546875 -0.9375 -1.296875q-0.421875 -0.703125 -0.78125 -1.625q-0.359375 -0.921875 -0.640625 -2.015625q-0.1875 -0.78125 -0.359375 -2.09375q-0.171875 -1.3125 -0.171875 -2.859375l0 -0.3125q0 -1.578125 0.171875 -2.90625q0.171875 -1.34375 0.46875 -2.4375q0.3125 -1.140625 0.734375 -2.09375q0.4375 -0.96875 0.921875 -1.671875q0.390625 -0.546875 0.78125 -0.96875q0.40625 -0.421875 0.796875 -0.71875l-0.671875 -1.875q-0.671875 0.296875 -1.40625 0.875q-0.71875 0.578125 -1.390625 1.40625q-0.6875 0.828125 -1.296875 1.90625q-0.609375 1.078125 -1.078125 2.375q-0.453125 1.3125 -0.71875 2.859375q-0.265625 1.53125 -0.265625 3.265625z" fill-rule="nonzero"/><path fill="#000000" d="m397.8094 335.1734l0 -3.34375l-6.78125 -2.265625l-0.84375 -0.296875l0.84375 -0.3125l6.78125 -2.296875l0 -3.34375l-10.953125 4.53125l0 2.796875l10.953125 4.53125zm16.32434 -0.328125l-0.015625 -7.09375l-6.4375 0l0 2.59375l2.984375 0l-0.015625 3.265625q-0.140625 0.171875 -0.40625 0.3125q-0.265625 0.140625 -0.609375 0.25q-0.34375 0.109375 -0.75 0.171875q-0.390625 0.0625 -0.796875 0.0625q-0.671875 -0.015625 -1.203125 -0.21875q-0.515625 -0.203125 -0.90625 -0.59375q-0.234375 -0.234375 -0.4375 -0.53125q-0.1875 -0.3125 -0.328125 -0.671875q-0.25 -0.625 -0.375 -1.421875q-0.125 -0.8125 -0.125 -1.78125l0 -2.46875q0 -0.78125 0.09375 -1.453125q0.09375 -0.671875 0.265625 -1.21875q0.21875 -0.703125 0.5625 -1.21875q0.34375 -0.515625 0.765625 -0.84375q0.3125 -0.234375 0.6875 -0.359375q0.375 -0.125 0.765625 -0.125q0.734375 0 1.25 0.203125q0.53125 0.1875 0.875 0.5625q0.3125 0.359375 0.484375 0.875q0.1875 0.5 0.265625 1.140625l3.390625 0q-0.140625 -1.296875 -0.578125 -2.328125q-0.4375 -1.046875 -1.21875 -1.765625q-0.765625 -0.71875 -1.90625 -1.09375q-1.125 -0.390625 -2.65625 -0.390625q-0.984375 0 -1.875 0.28125q-0.890625 0.265625 -1.640625 0.796875q-0.640625 0.46875 -1.1875 1.109375q-0.53125 0.640625 -0.9375 1.4375q-0.4375 0.90625 -0.671875 2.015625q-0.234375 1.109375 -0.234375 2.390625l0 2.453125q0 1.34375 0.234375 2.5q0.25 1.140625 0.71875 2.0625q0.40625 0.828125 0.984375 1.46875q0.59375 0.640625 1.3125 1.09375q0.734375 0.4375 1.59375 0.65625q0.875 0.234375 1.875 0.234375q1.125 0 2.109375 -0.21875q1.0 -0.203125 1.8125 -0.546875q0.78125 -0.34375 1.359375 -0.75q0.59375 -0.421875 0.921875 -0.84375zm12.558746 -11.515625q-1.359375 0 -2.5 0.65625q-1.125 0.640625 -1.953125 1.78125l-0.015625 -0.296875l-0.140625 -1.890625l-3.203125 0l0 13.375l3.4375 0l0 -8.03125q0.234375 -0.578125 0.59375 -1.0q0.359375 -0.421875 0.875 -0.6875q0.421875 -0.234375 0.953125 -0.34375q0.53125 -0.125 1.203125 -0.125q0.640625 0 1.34375 0.078125q0.71875 0.078125 1.40625 0.234375l0.5 -3.421875q-0.40625 -0.125 -1.078125 -0.21875q-0.65625 -0.109375 -1.421875 -0.109375zm12.074341 13.875q1.9375 0 3.359375 -0.75q1.421875 -0.765625 2.078125 -1.6875l-1.71875 -1.859375q-0.59375 0.765625 -1.546875 1.15625q-0.9375 0.375 -1.953125 0.375q-0.71875 0 -1.328125 -0.21875q-0.609375 -0.21875 -1.078125 -0.625q-0.453125 -0.40625 -0.734375 -0.890625q-0.265625 -0.484375 -0.4375 -1.296875l0 -0.03125l9.078125 0l0 -1.453125q0 -1.484375 -0.40625 -2.6875q-0.40625 -1.21875 -1.1875 -2.09375q-0.796875 -0.859375 -1.9375 -1.328125q-1.125 -0.484375 -2.5625 -0.484375q-1.40625 0 -2.59375 0.515625q-1.1875 0.5 -2.046875 1.40625q-0.875 0.921875 -1.359375 2.1875q-0.46875 1.265625 -0.46875 2.796875l0 0.5q0 1.34375 0.484375 2.53125q0.484375 1.171875 1.390625 2.046875q0.90625 0.875 2.15625 1.390625q1.265625 0.5 2.8125 0.5zm-0.40625 -11.09375q0.65625 0 1.15625 0.203125q0.5 0.203125 0.84375 0.546875q0.34375 0.359375 0.546875 0.84375q0.203125 0.484375 0.203125 1.03125l0 0.265625l-5.640625 0q0.125 -0.65625 0.359375 -1.1875q0.25 -0.53125 0.625 -0.90625q0.359375 -0.390625 0.84375 -0.59375q0.484375 -0.203125 1.0625 -0.203125zm15.605621 11.09375q1.9375 0 3.359375 -0.75q1.421875 -0.765625 2.078125 -1.6875l-1.71875 -1.859375q-0.59375 0.765625 -1.546875 1.15625q-0.9375 0.375 -1.953125 0.375q-0.71875 0 -1.328125 -0.21875q-0.609375 -0.21875 -1.078125 -0.625q-0.453125 -0.40625 -0.734375 -0.890625q-0.265625 -0.484375 -0.4375 -1.296875l0 -0.03125l9.078125 0l0 -1.453125q0 -1.484375 -0.40625 -2.6875q-0.40625 -1.21875 -1.1875 -2.09375q-0.796875 -0.859375 -1.9375 -1.328125q-1.125 -0.484375 -2.5625 -0.484375q-1.40625 0 -2.59375 0.515625q-1.1875 0.5 -2.046875 1.40625q-0.875 0.921875 -1.359375 2.1875q-0.46875 1.265625 -0.46875 2.796875l0 0.5q0 1.34375 0.484375 2.53125q0.484375 1.171875 1.390625 2.046875q0.90625 0.875 2.15625 1.390625q1.265625 0.5 2.8125 0.5zm-0.40625 -11.09375q0.65625 0 1.15625 0.203125q0.5 0.203125 0.84375 0.546875q0.34375 0.359375 0.546875 0.84375q0.203125 0.484375 0.203125 1.03125l0 0.265625l-5.640625 0q0.125 -0.65625 0.359375 -1.1875q0.25 -0.53125 0.625 -0.90625q0.359375 -0.390625 0.84375 -0.59375q0.484375 -0.203125 1.0625 -0.203125zm15.418091 -5.8125l-3.4375 0l0 3.28125l-3.046875 0l0 2.53125l3.046875 0l0 6.078125q0 1.328125 0.34375 2.28125q0.359375 0.9375 1.0 1.546875q0.625 0.609375 1.515625 0.90625q0.90625 0.296875 2.0 0.296875q0.578125 0 1.15625 -0.0625q0.59375 -0.0625 1.140625 -0.15625q0.546875 -0.09375 1.015625 -0.25q0.484375 -0.15625 0.84375 -0.359375l-0.328125 -2.375q-0.234375 0.0625 -0.5625 0.125q-0.328125 0.0625 -0.703125 0.109375q-0.375 0.0625 -0.796875 0.109375q-0.40625 0.03125 -0.8125 0.03125q-0.546875 0 -0.984375 -0.125q-0.4375 -0.125 -0.75 -0.421875q-0.296875 -0.28125 -0.46875 -0.765625q-0.171875 -0.484375 -0.171875 -1.21875l0 -5.75l5.0 0l0 -2.53125l-5.0 0l0 -3.28125zm9.136871 14.890625l11.140625 -4.546875l0 -2.796875l-11.140625 -4.53125l0 3.328125l7.109375 2.328125l0.734375 0.25l-0.75 0.25l-7.09375 2.375l0 3.34375z" fill-rule="nonzero"/><path fill="#000000" d="m446.4344 367.35464l0 -18.0l-3.4375 0l0 7.375l-5.09375 0l0 -7.375l-3.453125 0l0 18.0l3.453125 0l0 -7.796875l5.09375 0l0 7.796875l3.4375 0zm4.355591 -13.375l0 2.796875l3.8125 0l0 7.78125l-3.8125 0l0 2.796875l10.90625 0l0 -2.796875l-3.625 0l0 -10.578125l-7.28125 0zm3.5625 -3.4375q0 0.40625 0.140625 0.75q0.140625 0.328125 0.40625 0.5625q0.265625 0.25 0.625 0.390625q0.359375 0.125 0.8125 0.125q0.90625 0 1.4375 -0.5q0.546875 -0.515625 0.546875 -1.328125q0 -0.796875 -0.546875 -1.3125q-0.53125 -0.515625 -1.4375 -0.515625q-0.453125 0 -0.8125 0.140625q-0.359375 0.140625 -0.625 0.375q-0.265625 0.234375 -0.40625 0.578125q-0.140625 0.34375 -0.140625 0.734375zm32.226837 0.15625l-3.4375 0l0 3.28125l-3.046875 0l0 2.53125l3.046875 0l0 6.078125q0 1.328125 0.34375 2.28125q0.359375 0.9375 1.0 1.546875q0.625 0.609375 1.515625 0.90625q0.90625 0.296875 2.0 0.296875q0.578125 0 1.15625 -0.0625q0.59375 -0.0625 1.140625 -0.15625q0.546875 -0.09375 1.015625 -0.25q0.484375 -0.15625 0.84375 -0.359375l-0.328125 -2.375q-0.234375 0.0625 -0.5625 0.125q-0.328125 0.0625 -0.703125 0.109375q-0.375 0.0625 -0.796875 0.109375q-0.40625 0.03125 -0.8125 0.03125q-0.546875 0 -0.984375 -0.125q-0.4375 -0.125 -0.75 -0.421875q-0.296875 -0.28125 -0.46875 -0.765625q-0.171875 -0.484375 -0.171875 -1.21875l0 -5.75l5.0 0l0 -2.53125l-5.0 0l0 -3.28125zm12.339996 5.125l0 -7.46875l-3.4375 0l0 19.0l3.4375 0l0 -9.65625q0.1875 -0.265625 0.421875 -0.46875q0.25 -0.21875 0.546875 -0.359375q0.328125 -0.171875 0.71875 -0.25q0.390625 -0.09375 0.859375 -0.09375q0.59375 0 1.0625 0.15625q0.46875 0.140625 0.796875 0.46875q0.34375 0.328125 0.515625 0.84375q0.1875 0.515625 0.1875 1.234375l0 8.125l3.4375 0l0 -8.09375q0 -1.484375 -0.359375 -2.515625q-0.359375 -1.046875 -0.984375 -1.71875q-0.625 -0.671875 -1.515625 -0.984375q-0.875 -0.3125 -1.921875 -0.3125q-0.71875 0 -1.359375 0.21875q-0.640625 0.203125 -1.171875 0.578125q-0.34375 0.25 -0.671875 0.578125q-0.3125 0.328125 -0.5625 0.71875zm18.246216 11.78125q1.9375 0 3.359375 -0.75q1.421875 -0.765625 2.078125 -1.6875l-1.71875 -1.859375q-0.59375 0.765625 -1.546875 1.15625q-0.9375 0.375 -1.953125 0.375q-0.71875 0 -1.328125 -0.21875q-0.609375 -0.21875 -1.078125 -0.625q-0.453125 -0.40625 -0.734375 -0.890625q-0.265625 -0.484375 -0.4375 -1.296875l0 -0.03125l9.078125 0l0 -1.453125q0 -1.484375 -0.40625 -2.6875q-0.40625 -1.21875 -1.1875 -2.09375q-0.796875 -0.859375 -1.9375 -1.328125q-1.125 -0.484375 -2.5625 -0.484375q-1.40625 0 -2.59375 0.515625q-1.1875 0.5 -2.046875 1.40625q-0.875 0.921875 -1.359375 2.1875q-0.46875 1.265625 -0.46875 2.796875l0 0.5q0 1.34375 0.484375 2.53125q0.484375 1.171875 1.390625 2.046875q0.90625 0.875 2.15625 1.390625q1.265625 0.5 2.8125 0.5zm-0.40625 -11.09375q0.65625 0 1.15625 0.203125q0.5 0.203125 0.84375 0.546875q0.34375 0.359375 0.546875 0.84375q0.203125 0.484375 0.203125 1.03125l0 0.265625l-5.640625 0q0.125 -0.65625 0.359375 -1.1875q0.25 -0.53125 0.625 -0.90625q0.359375 -0.390625 0.84375 -0.59375q0.484375 -0.203125 1.0625 -0.203125zm18.73059 -2.78125q-1.359375 0 -2.5 0.65625q-1.125 0.640625 -1.953125 1.78125l-0.015625 -0.296875l-0.140625 -1.890625l-3.203125 0l0 13.375l3.4375 0l0 -8.03125q0.234375 -0.578125 0.59375 -1.0q0.359375 -0.421875 0.875 -0.6875q0.421875 -0.234375 0.953125 -0.34375q0.53125 -0.125 1.203125 -0.125q0.640625 0 1.34375 0.078125q0.71875 0.078125 1.40625 0.234375l0.5 -3.421875q-0.40625 -0.125 -1.078125 -0.21875q-0.65625 -0.109375 -1.421875 -0.109375zm12.074402 13.875q1.9375 0 3.359375 -0.75q1.421875 -0.765625 2.078125 -1.6875l-1.71875 -1.859375q-0.59375 0.765625 -1.546875 1.15625q-0.9375 0.375 -1.953125 0.375q-0.71875 0 -1.328125 -0.21875q-0.609375 -0.21875 -1.078125 -0.625q-0.453125 -0.40625 -0.734375 -0.890625q-0.265625 -0.484375 -0.4375 -1.296875l0 -0.03125l9.078125 0l0 -1.453125q0 -1.484375 -0.40625 -2.6875q-0.40625 -1.21875 -1.1875 -2.09375q-0.796875 -0.859375 -1.9375 -1.328125q-1.125 -0.484375 -2.5625 -0.484375q-1.40625 0 -2.59375 0.515625q-1.1875 0.5 -2.046875 1.40625q-0.875 0.921875 -1.359375 2.1875q-0.46875 1.265625 -0.46875 2.796875l0 0.5q0 1.34375 0.484375 2.53125q0.484375 1.171875 1.390625 2.046875q0.90625 0.875 2.15625 1.390625q1.265625 0.5 2.8125 0.5zm-0.40625 -11.09375q0.65625 0 1.15625 0.203125q0.5 0.203125 0.84375 0.546875q0.34375 0.359375 0.546875 0.84375q0.203125 0.484375 0.203125 1.03125l0 0.265625l-5.640625 0q0.125 -0.65625 0.359375 -1.1875q0.25 -0.53125 0.625 -0.90625q0.359375 -0.390625 0.84375 -0.59375q0.484375 -0.203125 1.0625 -0.203125zm16.54309 4.546875l0.1875 -11.703125l-3.515625 0l0.1875 11.703125l3.140625 0zm-3.578125 4.609375q0 0.796875 0.53125 1.34375q0.53125 0.53125 1.46875 0.53125q0.921875 0 1.453125 -0.53125q0.546875 -0.546875 0.546875 -1.34375q0 -0.8125 -0.546875 -1.359375q-0.53125 -0.546875 -1.453125 -0.546875q-0.9375 0 -1.46875 0.546875q-0.53125 0.546875 -0.53125 1.359375z" fill-rule="nonzero"/><path fill="#000000" d="m397.8094 395.97342l0 -3.34375l-6.78125 -2.265625l-0.84375 -0.296875l0.84375 -0.3125l6.78125 -2.296875l0 -3.34375l-10.953125 4.53125l0 2.796875l10.953125 4.53125zm16.32434 -0.328125l-0.015625 -7.09375l-6.4375 0l0 2.59375l2.984375 0l-0.015625 3.265625q-0.140625 0.171875 -0.40625 0.3125q-0.265625 0.140625 -0.609375 0.25q-0.34375 0.109375 -0.75 0.171875q-0.390625 0.0625 -0.796875 0.0625q-0.671875 -0.015625 -1.203125 -0.21875q-0.515625 -0.203125 -0.90625 -0.59375q-0.234375 -0.234375 -0.4375 -0.53125q-0.1875 -0.3125 -0.328125 -0.671875q-0.25 -0.625 -0.375 -1.421875q-0.125 -0.8125 -0.125 -1.78125l0 -2.46875q0 -0.78125 0.09375 -1.453125q0.09375 -0.671875 0.265625 -1.21875q0.21875 -0.703125 0.5625 -1.21875q0.34375 -0.515625 0.765625 -0.84375q0.3125 -0.234375 0.6875 -0.359375q0.375 -0.125 0.765625 -0.125q0.734375 0 1.25 0.203125q0.53125 0.1875 0.875 0.5625q0.3125 0.359375 0.484375 0.875q0.1875 0.5 0.265625 1.140625l3.390625 0q-0.140625 -1.296875 -0.578125 -2.328125q-0.4375 -1.046875 -1.21875 -1.765625q-0.765625 -0.71875 -1.90625 -1.09375q-1.125 -0.390625 -2.65625 -0.390625q-0.984375 0 -1.875 0.28125q-0.890625 0.265625 -1.640625 0.796875q-0.640625 0.46875 -1.1875 1.109375q-0.53125 0.640625 -0.9375 1.4375q-0.4375 0.90625 -0.671875 2.015625q-0.234375 1.109375 -0.234375 2.390625l0 2.453125q0 1.34375 0.234375 2.5q0.25 1.140625 0.71875 2.0625q0.40625 0.828125 0.984375 1.46875q0.59375 0.640625 1.3125 1.09375q0.734375 0.4375 1.59375 0.65625q0.875 0.234375 1.875 0.234375q1.125 0 2.109375 -0.21875q1.0 -0.203125 1.8125 -0.546875q0.78125 -0.34375 1.359375 -0.75q0.59375 -0.421875 0.921875 -0.84375zm12.558746 -11.515625q-1.359375 0 -2.5 0.65625q-1.125 0.640625 -1.953125 1.78125l-0.015625 -0.296875l-0.140625 -1.890625l-3.203125 0l0 13.375l3.4375 0l0 -8.03125q0.234375 -0.578125 0.59375 -1.0q0.359375 -0.421875 0.875 -0.6875q0.421875 -0.234375 0.953125 -0.34375q0.53125 -0.125 1.203125 -0.125q0.640625 0 1.34375 0.078125q0.71875 0.078125 1.40625 0.234375l0.5 -3.421875q-0.40625 -0.125 -1.078125 -0.21875q-0.65625 -0.109375 -1.421875 -0.109375zm12.074341 13.875q1.9375 0 3.359375 -0.75q1.421875 -0.765625 2.078125 -1.6875l-1.71875 -1.859375q-0.59375 0.765625 -1.546875 1.15625q-0.9375 0.375 -1.953125 0.375q-0.71875 0 -1.328125 -0.21875q-0.609375 -0.21875 -1.078125 -0.625q-0.453125 -0.40625 -0.734375 -0.890625q-0.265625 -0.484375 -0.4375 -1.296875l0 -0.03125l9.078125 0l0 -1.453125q0 -1.484375 -0.40625 -2.6875q-0.40625 -1.21875 -1.1875 -2.09375q-0.796875 -0.859375 -1.9375 -1.328125q-1.125 -0.484375 -2.5625 -0.484375q-1.40625 0 -2.59375 0.515625q-1.1875 0.5 -2.046875 1.40625q-0.875 0.921875 -1.359375 2.1875q-0.46875 1.265625 -0.46875 2.796875l0 0.5q0 1.34375 0.484375 2.53125q0.484375 1.171875 1.390625 2.046875q0.90625 0.875 2.15625 1.390625q1.265625 0.5 2.8125 0.5zm-0.40625 -11.09375q0.65625 0 1.15625 0.203125q0.5 0.203125 0.84375 0.546875q0.34375 0.359375 0.546875 0.84375q0.203125 0.484375 0.203125 1.03125l0 0.265625l-5.640625 0q0.125 -0.65625 0.359375 -1.1875q0.25 -0.53125 0.625 -0.90625q0.359375 -0.390625 0.84375 -0.59375q0.484375 -0.203125 1.0625 -0.203125zm15.605621 11.09375q1.9375 0 3.359375 -0.75q1.421875 -0.765625 2.078125 -1.6875l-1.71875 -1.859375q-0.59375 0.765625 -1.546875 1.15625q-0.9375 0.375 -1.953125 0.375q-0.71875 0 -1.328125 -0.21875q-0.609375 -0.21875 -1.078125 -0.625q-0.453125 -0.40625 -0.734375 -0.890625q-0.265625 -0.484375 -0.4375 -1.296875l0 -0.03125l9.078125 0l0 -1.453125q0 -1.484375 -0.40625 -2.6875q-0.40625 -1.21875 -1.1875 -2.09375q-0.796875 -0.859375 -1.9375 -1.328125q-1.125 -0.484375 -2.5625 -0.484375q-1.40625 0 -2.59375 0.515625q-1.1875 0.5 -2.046875 1.40625q-0.875 0.921875 -1.359375 2.1875q-0.46875 1.265625 -0.46875 2.796875l0 0.5q0 1.34375 0.484375 2.53125q0.484375 1.171875 1.390625 2.046875q0.90625 0.875 2.15625 1.390625q1.265625 0.5 2.8125 0.5zm-0.40625 -11.09375q0.65625 0 1.15625 0.203125q0.5 0.203125 0.84375 0.546875q0.34375 0.359375 0.546875 0.84375q0.203125 0.484375 0.203125 1.03125l0 0.265625l-5.640625 0q0.125 -0.65625 0.359375 -1.1875q0.25 -0.53125 0.625 -0.90625q0.359375 -0.390625 0.84375 -0.59375q0.484375 -0.203125 1.0625 -0.203125zm15.418091 -5.8125l-3.4375 0l0 3.28125l-3.046875 0l0 2.53125l3.046875 0l0 6.078125q0 1.328125 0.34375 2.28125q0.359375 0.9375 1.0 1.546875q0.625 0.609375 1.515625 0.90625q0.90625 0.296875 2.0 0.296875q0.578125 0 1.15625 -0.0625q0.59375 -0.0625 1.140625 -0.15625q0.546875 -0.09375 1.015625 -0.25q0.484375 -0.15625 0.84375 -0.359375l-0.328125 -2.375q-0.234375 0.0625 -0.5625 0.125q-0.328125 0.0625 -0.703125 0.109375q-0.375 0.0625 -0.796875 0.109375q-0.40625 0.03125 -0.8125 0.03125q-0.546875 0 -0.984375 -0.125q-0.4375 -0.125 -0.75 -0.421875q-0.296875 -0.28125 -0.46875 -0.765625q-0.171875 -0.484375 -0.171875 -1.21875l0 -5.75l5.0 0l0 -2.53125l-5.0 0l0 -3.28125zm13.074371 18.203125l6.75 -19.546875l-3.203125 0l-6.75 19.546875l3.203125 0zm11.261841 -3.3125l11.140625 -4.546875l0 -2.796875l-11.140625 -4.53125l0 3.328125l7.109375 2.328125l0.734375 0.25l-0.75 0.25l-7.09375 2.375l0 3.34375z" fill-rule="nonzero"/><path fill="#000000" d="m347.825 421.1078l0 -0.28125q0 -1.6875 -0.28125 -3.203125q-0.265625 -1.515625 -0.734375 -2.828125q-0.46875 -1.3125 -1.09375 -2.390625q-0.625 -1.078125 -1.328125 -1.9375q-0.703125 -0.84375 -1.453125 -1.4375q-0.734375 -0.59375 -1.4375 -0.890625l-0.65625 1.828125q0.375 0.296875 0.75 0.703125q0.375 0.390625 0.734375 0.90625q0.53125 0.765625 1.0 1.8125q0.484375 1.046875 0.8125 2.375q0.265625 1.0625 0.421875 2.328125q0.15625 1.25 0.15625 2.71875l0 0.3125q0 1.5 -0.15625 2.796875q-0.15625 1.28125 -0.421875 2.34375q-0.296875 1.15625 -0.703125 2.09375q-0.40625 0.953125 -0.890625 1.6875q-0.40625 0.625 -0.84375 1.09375q-0.421875 0.484375 -0.859375 0.8125l0.65625 1.859375q0.703125 -0.3125 1.4375 -0.90625q0.75 -0.59375 1.453125 -1.453125q0.703125 -0.828125 1.328125 -1.921875q0.625 -1.078125 1.09375 -2.390625q0.46875 -1.3125 0.734375 -2.828125q0.28125 -1.515625 0.28125 -3.203125zm10.183716 -5.15625q0 0.953125 0.640625 1.59375q0.640625 0.640625 1.75 0.640625q1.078125 0 1.734375 -0.640625q0.65625 -0.640625 0.65625 -1.59375q0 -0.96875 -0.640625 -1.625q-0.640625 -0.65625 -1.75 -0.65625q-1.125 0 -1.765625 0.671875q-0.625 0.65625 -0.625 1.609375zm3.84375 11.9375l0.015625 -2.734375l-3.234375 0l0 2.890625q0 1.359375 -0.328125 2.328125q-0.3125 0.96875 -0.78125 1.859375l1.8125 0.9375q1.125 -0.984375 1.8125 -2.4375q0.703125 -1.4375 0.703125 -2.84375z" fill-rule="nonzero"/><path fill="#000000" d="m293.04376 461.05466l0.421875 1.953125q1.21875 0 2.109375 -0.53125q0.90625 -0.515625 1.453125 -1.375q0.5625 -0.8125 0.84375 -1.859375q0.28125 -1.03125 0.28125 -2.0l0 -2.015625q0 -0.578125 0.09375 -1.03125q0.09375 -0.46875 0.28125 -0.828125q0.34375 -0.640625 1.015625 -0.921875q0.6875 -0.296875 1.71875 -0.296875l0 -2.46875q-0.90625 0 -1.5625 -0.234375q-0.65625 -0.234375 -1.015625 -0.75q-0.265625 -0.375 -0.40625 -0.90625q-0.125 -0.53125 -0.125 -1.21875l0 -2.015625q0 -0.9375 -0.234375 -1.9375q-0.21875 -1.015625 -0.765625 -1.828125q-0.5625 -0.90625 -1.46875 -1.4375q-0.90625 -0.546875 -2.21875 -0.546875l-0.421875 1.9375q0.75 -0.015625 1.15625 0.328125q0.40625 0.328125 0.59375 0.890625q0.1875 0.546875 0.21875 1.234375q0.03125 0.6875 0.03125 1.359375l0 2.015625q0 0.859375 0.234375 1.625q0.234375 0.75 0.734375 1.375q0.328125 0.40625 0.78125 0.765625q0.46875 0.34375 1.0625 0.59375q-0.734375 0.296875 -1.265625 0.75q-0.515625 0.4375 -0.859375 0.984375q-0.359375 0.5625 -0.53125 1.203125q-0.15625 0.640625 -0.15625 1.359375l0 2.015625q0 0.671875 -0.09375 1.359375q-0.078125 0.6875 -0.296875 1.234375q-0.234375 0.5625 -0.625 0.890625q-0.375 0.34375 -0.984375 0.328125zm16.964966 -14.703125q0 0.953125 0.640625 1.59375q0.640625 0.640625 1.75 0.640625q1.078125 0 1.734375 -0.640625q0.65625 -0.640625 0.65625 -1.59375q0 -0.96875 -0.640625 -1.625q-0.640625 -0.65625 -1.75 -0.65625q-1.125 0 -1.765625 0.671875q-0.625 0.65625 -0.625 1.609375zm3.84375 11.9375l0.015625 -2.734375l-3.234375 0l0 2.890625q0 1.359375 -0.328125 2.328125q-0.3125 0.96875 -0.78125 1.859375l1.8125 0.9375q1.125 -0.984375 1.8125 -2.4375q0.703125 -1.4375 0.703125 -2.84375z" fill-rule="nonzero"/></g></svg>